<svg xmlns="http://www.w3.org/2000/svg" xmlns:xlink="http://www.w3.org/1999/xlink" width="500" zoomAndPan="magnify" viewBox="0 0 375 374.999991" height="500" preserveAspectRatio="xMidYMid meet" version="1.0"><defs><clipPath id="c581e7f07e"><path d="M 0 0 L 374.992188 0 L 374.992188 374.992188 L 0 374.992188 Z M 0 0 " clip-rule="nonzero"/></clipPath></defs><g clip-path="url(#c581e7f07e)"><path fill="#ffffff" d="M 187.496094 341.285156 L 42.644531 341.285156 L 83.375 300.550781 C 110.789062 325.816406 147.363281 341.285156 187.496094 341.285156 C 227.625 341.285156 264.199219 325.816406 291.613281 300.550781 L 332.347656 341.285156 Z M 33.707031 187.558594 C 33.722656 227.664062 49.1875 264.21875 74.4375 291.613281 L 33.707031 332.347656 Z M 74.441406 83.375 C 49.1875 110.773438 33.722656 147.328125 33.707031 187.433594 L 33.707031 42.644531 Z M 187.371094 33.710938 C 147.289062 33.742188 110.761719 49.199219 83.375 74.441406 L 42.648438 33.710938 Z M 291.613281 74.441406 C 264.230469 49.199219 227.703125 33.742188 187.621094 33.710938 L 332.34375 33.710938 Z M 341.28125 187.433594 C 341.265625 147.328125 325.804688 110.773438 300.550781 83.375 L 341.28125 42.644531 Z M 196.433594 187.496094 L 291.617188 92.3125 C 314.597656 117.429688 328.640625 150.851562 328.640625 187.496094 C 328.640625 224.140625 314.597656 257.5625 291.617188 282.679688 Z M 187.496094 196.433594 L 282.679688 291.617188 C 257.5625 314.597656 224.140625 328.640625 187.496094 328.640625 C 150.847656 328.640625 117.425781 314.597656 92.308594 291.617188 Z M 92.3125 83.375 C 117.425781 60.394531 150.847656 46.347656 187.496094 46.347656 C 224.140625 46.347656 257.5625 60.394531 282.679688 83.375 L 187.496094 178.558594 Z M 178.558594 187.496094 L 83.375 282.679688 C 60.394531 257.5625 46.347656 224.140625 46.347656 187.496094 C 46.347656 150.851562 60.394531 117.429688 83.375 92.3125 Z M 300.550781 291.613281 C 325.804688 264.21875 341.265625 227.664062 341.28125 187.558594 L 341.28125 332.347656 Z M 353.925781 344.988281 L 353.925781 30.003906 L 373.140625 10.789062 C 375.605469 8.320312 375.605469 4.320312 373.140625 1.851562 C 370.671875 -0.617188 366.667969 -0.617188 364.203125 1.851562 L 344.984375 21.066406 L 30.003906 21.066406 L 10.789062 1.851562 C 8.320312 -0.617188 4.316406 -0.617188 1.851562 1.851562 C -0.617188 4.320312 -0.617188 8.320312 1.851562 10.789062 L 21.066406 30.003906 L 21.066406 344.988281 L 1.851562 364.203125 C -0.617188 366.667969 -0.617188 370.671875 1.851562 373.140625 C 3.085938 374.375 4.703125 374.992188 6.320312 374.992188 C 7.9375 374.992188 9.554688 374.375 10.789062 373.140625 L 30.003906 353.925781 L 344.988281 353.925781 L 364.203125 373.140625 C 365.433594 374.375 367.054688 374.992188 368.671875 374.992188 C 370.289062 374.992188 371.90625 374.375 373.140625 373.140625 C 375.605469 370.671875 375.605469 366.667969 373.140625 364.203125 L 353.925781 344.988281 " fill-opacity="1" fill-rule="nonzero"/></g></svg>