<svg xmlns="http://www.w3.org/2000/svg" xmlns:xlink="http://www.w3.org/1999/xlink" width="500" zoomAndPan="magnify" viewBox="0 0 375 374.999991" height="500" preserveAspectRatio="xMidYMid meet" version="1.0"><defs><clipPath id="78cd43c24b"><path d="M 28.238281 0 L 346.933594 0 L 346.933594 374.984375 L 28.238281 374.984375 Z M 28.238281 0 " clip-rule="nonzero"/></clipPath></defs><g clip-path="url(#78cd43c24b)"><path fill="#ffffff" d="M 346.933594 368.9375 C 346.933594 372.277344 344.226562 374.984375 340.882812 374.984375 L 34.289062 374.984375 C 30.945312 374.984375 28.238281 372.277344 28.238281 368.9375 C 28.238281 365.59375 30.945312 362.886719 34.289062 362.886719 L 340.882812 362.886719 C 344.226562 362.886719 346.933594 365.59375 346.933594 368.9375 Z M 346.933594 340.710938 C 346.933594 344.050781 344.226562 346.757812 340.882812 346.757812 L 34.289062 346.757812 C 30.945312 346.757812 28.238281 344.050781 28.238281 340.710938 C 28.238281 337.371094 30.945312 334.660156 34.289062 334.660156 L 340.882812 334.660156 C 344.226562 334.660156 346.933594 337.371094 346.933594 340.710938 Z M 187.585938 306.4375 L 40.339844 306.4375 L 40.339844 12.097656 L 187.464844 12.097656 C 106.328125 12.164062 40.339844 78.15625 40.339844 159.269531 C 40.339844 240.417969 106.394531 306.4375 187.585938 306.4375 C 268.738281 306.4375 334.765625 240.484375 334.832031 159.386719 L 334.832031 306.4375 Z M 322.730469 159.269531 C 322.730469 233.746094 262.101562 294.339844 187.585938 294.339844 C 113.066406 294.339844 52.445312 233.746094 52.445312 159.269531 C 52.445312 84.789062 113.066406 24.191406 187.585938 24.191406 C 262.101562 24.191406 322.730469 84.789062 322.730469 159.269531 Z M 334.832031 159.148438 C 334.765625 78.09375 268.800781 12.164062 187.707031 12.097656 L 334.832031 12.097656 Z M 340.882812 0 L 34.289062 0 C 30.945312 0 28.238281 2.707031 28.238281 6.050781 L 28.238281 312.484375 C 28.238281 315.828125 30.945312 318.535156 34.289062 318.535156 L 340.882812 318.535156 C 344.226562 318.535156 346.933594 315.828125 346.933594 312.484375 L 346.933594 6.050781 C 346.933594 2.707031 344.226562 0 340.882812 0 " fill-opacity="1" fill-rule="nonzero"/></g></svg>