<svg xmlns="http://www.w3.org/2000/svg" xmlns:xlink="http://www.w3.org/1999/xlink" width="500" zoomAndPan="magnify" viewBox="0 0 375 374.999991" height="500" preserveAspectRatio="xMidYMid meet" version="1.0"><path fill="#ffffff" d="M 296.691406 187.507812 C 296.691406 200.617188 286.066406 211.242188 272.957031 211.242188 C 259.847656 211.242188 249.222656 200.617188 249.222656 187.507812 C 249.222656 174.398438 259.847656 163.773438 272.957031 163.773438 C 286.066406 163.773438 296.691406 174.398438 296.691406 187.507812 Z M 211.246094 187.507812 C 211.246094 200.617188 200.617188 211.242188 187.507812 211.242188 C 174.402344 211.242188 163.773438 200.617188 163.773438 187.507812 C 163.773438 174.398438 174.402344 163.773438 187.507812 163.773438 C 200.617188 163.773438 211.246094 174.398438 211.246094 187.507812 Z M 125.796875 187.507812 C 125.796875 200.617188 115.171875 211.242188 102.0625 211.242188 C 88.957031 211.242188 78.328125 200.617188 78.328125 187.507812 C 78.328125 174.398438 88.957031 163.773438 102.0625 163.773438 C 115.171875 163.773438 125.796875 174.398438 125.796875 187.507812 Z M 187.507812 360.777344 L 14.242188 360.777344 L 14.242188 14.242188 L 187.367188 14.242188 C 91.890625 14.320312 14.242188 92.015625 14.242188 187.507812 C 14.242188 283.050781 91.96875 360.777344 187.507812 360.777344 C 283.003906 360.777344 360.695312 283.125 360.773438 187.652344 L 360.773438 360.777344 Z M 346.535156 187.507812 C 346.535156 275.195312 275.195312 346.53125 187.507812 346.53125 C 99.820312 346.53125 28.484375 275.195312 28.484375 187.507812 C 28.484375 99.824219 99.820312 28.484375 187.507812 28.484375 C 275.195312 28.484375 346.535156 99.824219 346.535156 187.507812 Z M 360.773438 187.367188 C 360.695312 91.941406 283.078125 14.320312 187.648438 14.242188 L 360.773438 14.242188 Z M 367.898438 0 L 7.121094 0 C 3.1875 0 0 3.1875 0 7.121094 L 0 367.898438 C 0 371.832031 3.1875 375.019531 7.121094 375.019531 L 367.898438 375.019531 C 371.828125 375.019531 375.019531 371.832031 375.019531 367.898438 L 375.019531 7.121094 C 375.019531 3.1875 371.828125 0 367.898438 0 " fill-opacity="1" fill-rule="nonzero"/></svg>