<svg xmlns="http://www.w3.org/2000/svg" xmlns:xlink="http://www.w3.org/1999/xlink" width="500" zoomAndPan="magnify" viewBox="0 0 375 374.999991" height="500" preserveAspectRatio="xMidYMid meet" version="1.0"><path fill="#ffffff" d="M 374.824219 8.851562 L 374.824219 366.125 C 374.824219 371.003906 370.871094 374.957031 366.007812 374.957031 L 8.71875 374.957031 C 3.839844 374.957031 -0.0976562 371.003906 -0.0976562 366.125 L -0.0976562 8.851562 C -0.0976562 3.972656 3.839844 0.0195312 8.71875 0.0195312 L 366.007812 0.0195312 C 370.871094 0.0195312 374.824219 3.972656 374.824219 8.851562 Z M 357.179688 17.664062 L 17.546875 17.664062 L 17.546875 357.3125 C 17.546875 357.3125 357.179688 357.3125 357.179688 357.3125 Z M 357.179688 17.664062 " fill-opacity="1" fill-rule="evenodd"/><path fill="#ffffff" d="M 187.382812 17.335938 C 281.289062 17.335938 357.511719 93.582031 357.511719 187.488281 C 357.511719 281.394531 281.289062 357.621094 187.382812 357.621094 C 93.476562 357.621094 17.226562 281.394531 17.226562 187.488281 C 17.226562 93.582031 93.476562 17.335938 187.382812 17.335938 Z M 187.382812 34.972656 C 103.195312 34.972656 34.863281 103.304688 34.863281 187.488281 C 34.863281 271.652344 103.195312 339.984375 187.382812 339.984375 C 271.542969 339.984375 339.878906 271.652344 339.878906 187.488281 C 339.878906 103.304688 271.542969 34.972656 187.382812 34.972656 Z M 187.382812 34.972656 " fill-opacity="1" fill-rule="evenodd"/><path fill="#ffffff" d="M 216.328125 187.503906 C 216.328125 188.449219 216.28125 189.394531 216.1875 190.335938 C 216.09375 191.28125 215.957031 192.214844 215.769531 193.144531 C 215.585938 194.074219 215.355469 194.988281 215.082031 195.894531 C 214.808594 196.800781 214.488281 197.691406 214.125 198.566406 C 213.761719 199.441406 213.359375 200.296875 212.914062 201.132812 C 212.464844 201.96875 211.980469 202.78125 211.453125 203.566406 C 210.925781 204.355469 210.363281 205.113281 209.761719 205.847656 C 209.164062 206.578125 208.527344 207.277344 207.859375 207.949219 C 207.1875 208.617188 206.488281 209.253906 205.753906 209.855469 C 205.023438 210.457031 204.261719 211.019531 203.476562 211.542969 C 202.6875 212.070312 201.878906 212.558594 201.042969 213.003906 C 200.207031 213.449219 199.351562 213.855469 198.476562 214.214844 C 197.601562 214.578125 196.710938 214.898438 195.804688 215.171875 C 194.898438 215.449219 193.980469 215.675781 193.050781 215.863281 C 192.125 216.046875 191.1875 216.1875 190.246094 216.277344 C 189.304688 216.371094 188.359375 216.417969 187.414062 216.417969 C 186.464844 216.417969 185.519531 216.371094 184.578125 216.277344 C 183.636719 216.1875 182.699219 216.046875 181.769531 215.863281 C 180.84375 215.675781 179.925781 215.449219 179.019531 215.171875 C 178.113281 214.898438 177.222656 214.578125 176.347656 214.214844 C 175.472656 213.855469 174.617188 213.449219 173.78125 213.003906 C 172.945312 212.558594 172.136719 212.070312 171.347656 211.542969 C 170.558594 211.019531 169.800781 210.457031 169.070312 209.855469 C 168.335938 209.253906 167.636719 208.617188 166.964844 207.949219 C 166.296875 207.277344 165.660156 206.578125 165.058594 205.847656 C 164.460938 205.113281 163.894531 204.355469 163.371094 203.566406 C 162.84375 202.78125 162.359375 201.96875 161.910156 201.132812 C 161.464844 200.296875 161.058594 199.441406 160.699219 198.566406 C 160.335938 197.691406 160.015625 196.800781 159.742188 195.894531 C 159.46875 194.988281 159.238281 194.074219 159.050781 193.144531 C 158.867188 192.214844 158.730469 191.28125 158.636719 190.335938 C 158.542969 189.394531 158.496094 188.449219 158.496094 187.503906 C 158.496094 186.554688 158.542969 185.609375 158.636719 184.667969 C 158.730469 183.726562 158.867188 182.789062 159.050781 181.863281 C 159.238281 180.933594 159.46875 180.015625 159.742188 179.109375 C 160.015625 178.203125 160.335938 177.3125 160.699219 176.4375 C 161.058594 175.5625 161.464844 174.707031 161.910156 173.871094 C 162.359375 173.039062 162.84375 172.226562 163.371094 171.4375 C 163.894531 170.652344 164.460938 169.890625 165.058594 169.160156 C 165.660156 168.425781 166.296875 167.726562 166.964844 167.058594 C 167.636719 166.386719 168.335938 165.753906 169.070312 165.152344 C 169.800781 164.550781 170.558594 163.988281 171.347656 163.460938 C 172.136719 162.933594 172.945312 162.449219 173.78125 162.003906 C 174.617188 161.554688 175.472656 161.152344 176.347656 160.789062 C 177.222656 160.425781 178.113281 160.109375 179.019531 159.832031 C 179.925781 159.558594 180.84375 159.328125 181.769531 159.144531 C 182.699219 158.960938 183.636719 158.820312 184.578125 158.726562 C 185.519531 158.632812 186.464844 158.589844 187.414062 158.589844 C 188.359375 158.589844 189.304688 158.632812 190.246094 158.726562 C 191.1875 158.820312 192.125 158.960938 193.054688 159.144531 C 193.980469 159.328125 194.898438 159.558594 195.804688 159.832031 C 196.710938 160.109375 197.601562 160.425781 198.476562 160.789062 C 199.351562 161.152344 200.207031 161.554688 201.042969 162.003906 C 201.878906 162.449219 202.6875 162.933594 203.476562 163.460938 C 204.261719 163.988281 205.023438 164.550781 205.753906 165.152344 C 206.488281 165.753906 207.1875 166.386719 207.859375 167.058594 C 208.527344 167.726562 209.164062 168.425781 209.761719 169.160156 C 210.363281 169.890625 210.925781 170.652344 211.453125 171.4375 C 211.980469 172.226562 212.464844 173.039062 212.914062 173.871094 C 213.359375 174.707031 213.761719 175.5625 214.125 176.4375 C 214.488281 177.3125 214.808594 178.203125 215.082031 179.109375 C 215.355469 180.015625 215.585938 180.933594 215.769531 181.863281 C 215.957031 182.789062 216.09375 183.726562 216.1875 184.667969 C 216.28125 185.609375 216.328125 186.554688 216.328125 187.503906 Z M 216.328125 187.503906 " fill-opacity="1" fill-rule="nonzero"/></svg>