<svg xmlns="http://www.w3.org/2000/svg" xmlns:xlink="http://www.w3.org/1999/xlink" width="500" zoomAndPan="magnify" viewBox="0 0 375 374.999991" height="500" preserveAspectRatio="xMidYMid meet" version="1.0"><path fill="#100f0d" d="M 168.296875 187.515625 C 168.296875 200.3125 157.921875 210.6875 145.125 210.6875 C 132.324219 210.6875 121.949219 200.3125 121.949219 187.515625 C 121.949219 174.714844 132.324219 164.339844 145.125 164.339844 C 157.921875 164.339844 168.296875 174.714844 168.296875 187.515625 " fill-opacity="1" fill-rule="nonzero"/><path fill="#100f0d" d="M 253.085938 187.515625 C 253.085938 200.3125 242.710938 210.6875 229.910156 210.6875 C 217.109375 210.6875 206.734375 200.3125 206.734375 187.515625 C 206.734375 174.714844 217.109375 164.339844 229.910156 164.339844 C 242.710938 164.339844 253.085938 174.714844 253.085938 187.515625 " fill-opacity="1" fill-rule="nonzero"/><path fill="#100f0d" d="M 187.515625 38.148438 C 105.160156 38.148438 38.152344 105.152344 38.152344 187.515625 C 38.152344 269.871094 105.160156 336.875 187.515625 336.875 C 269.878906 336.875 336.878906 269.871094 336.878906 187.515625 C 336.878906 105.152344 269.878906 38.148438 187.515625 38.148438 Z M 187.515625 350.160156 C 97.832031 350.160156 24.871094 277.195312 24.871094 187.515625 C 24.871094 97.828125 97.832031 24.867188 187.515625 24.867188 C 277.203125 24.867188 350.164062 97.828125 350.164062 187.515625 C 350.164062 277.195312 277.203125 350.160156 187.515625 350.160156 " fill-opacity="1" fill-rule="nonzero"/><path fill="#100f0d" d="M 13.285156 361.746094 L 361.75 361.746094 L 361.75 13.28125 L 13.285156 13.28125 Z M 368.390625 375.03125 L 6.640625 375.03125 C 2.972656 375.03125 0 372.058594 0 368.390625 L 0 6.640625 C 0 2.972656 2.972656 -0.00390625 6.640625 -0.00390625 L 368.390625 -0.00390625 C 372.0625 -0.00390625 375.035156 2.972656 375.035156 6.640625 L 375.035156 368.390625 C 375.035156 372.058594 372.0625 375.03125 368.390625 375.03125 " fill-opacity="1" fill-rule="nonzero"/></svg>