<svg xmlns="http://www.w3.org/2000/svg" xmlns:xlink="http://www.w3.org/1999/xlink" width="500" zoomAndPan="magnify" viewBox="0 0 375 374.999991" height="500" preserveAspectRatio="xMidYMid meet" version="1.0"><path fill="#ffffff" d="M 187.507812 360.777344 L 14.242188 360.777344 L 14.242188 187.5625 C 14.273438 283.230469 91.832031 360.777344 187.507812 360.777344 C 283.1875 360.777344 360.753906 283.21875 360.773438 187.542969 L 360.773438 360.777344 Z M 187.402344 14.242188 C 91.777344 14.300781 14.273438 91.824219 14.242188 187.457031 L 14.242188 14.242188 Z M 360.773438 187.472656 C 360.753906 91.832031 283.246094 14.300781 187.613281 14.242188 L 360.773438 14.242188 Z M 367.898438 0 L 7.121094 0 C 3.191406 0 0 3.1875 0 7.121094 L 0 367.898438 C 0 371.832031 3.191406 375.019531 7.121094 375.019531 L 367.898438 375.019531 C 371.828125 375.019531 375.019531 371.832031 375.019531 367.898438 L 375.019531 7.121094 C 375.019531 3.1875 371.828125 0 367.898438 0 " fill-opacity="1" fill-rule="nonzero"/></svg>