<svg xmlns="http://www.w3.org/2000/svg" xmlns:xlink="http://www.w3.org/1999/xlink" width="500" zoomAndPan="magnify" viewBox="0 0 375 374.999991" height="500" preserveAspectRatio="xMidYMid meet" version="1.0"><defs><clipPath id="699887a26c"><path d="M 15.269531 0 L 359.464844 0 L 359.464844 375 L 15.269531 375 Z M 15.269531 0 " clip-rule="nonzero"/></clipPath></defs><g clip-path="url(#699887a26c)"><path fill="#ffffff" d="M 359.464844 368.457031 C 359.464844 372.070312 356.539062 375 352.929688 375 L 21.804688 375 C 18.195312 375 15.269531 372.070312 15.269531 368.457031 C 15.269531 364.847656 18.195312 361.917969 21.804688 361.917969 L 352.929688 361.917969 C 356.539062 361.917969 359.464844 364.847656 359.464844 368.457031 Z M 346.390625 172.238281 L 346.390625 331.394531 L 28.34375 331.394531 L 28.34375 172.371094 C 28.414062 260.066406 99.722656 331.394531 187.367188 331.394531 C 275.054688 331.394531 346.390625 260 346.390625 172.238281 C 346.390625 84.523438 275.125 13.15625 187.496094 13.085938 L 346.390625 13.085938 Z M 187.367188 26.164062 C 267.847656 26.164062 333.320312 91.691406 333.320312 172.238281 C 333.320312 252.785156 267.847656 318.3125 187.367188 318.3125 C 106.886719 318.3125 41.410156 252.785156 41.410156 172.238281 C 41.410156 91.691406 106.886719 26.164062 187.367188 26.164062 Z M 28.34375 13.085938 L 187.238281 13.085938 C 99.652344 13.15625 28.414062 84.453125 28.34375 172.109375 Z M 352.929688 0 L 21.804688 0 C 18.195312 0 15.269531 2.929688 15.269531 6.542969 L 15.269531 337.933594 C 15.269531 341.546875 18.195312 344.476562 21.804688 344.476562 L 352.929688 344.476562 C 356.539062 344.476562 359.464844 341.546875 359.464844 337.933594 L 359.464844 6.542969 C 359.464844 2.929688 356.539062 0 352.929688 0 " fill-opacity="1" fill-rule="nonzero"/></g></svg>