<svg xmlns="http://www.w3.org/2000/svg" xmlns:xlink="http://www.w3.org/1999/xlink" width="500" zoomAndPan="magnify" viewBox="0 0 375 374.999991" height="500" preserveAspectRatio="xMidYMid meet" version="1.0"><path fill="#ffffff" d="M 187.507812 360.777344 L 14.242188 360.777344 L 14.242188 187.578125 C 14.28125 283.085938 91.992188 360.777344 187.507812 360.777344 C 283.023438 360.777344 360.738281 283.085938 360.773438 187.578125 L 360.773438 360.777344 Z M 187.367188 14.242188 C 91.914062 14.320312 14.28125 91.980469 14.242188 187.441406 L 14.242188 14.242188 Z M 346.53125 187.507812 C 346.53125 275.195312 275.195312 346.53125 187.507812 346.53125 C 99.820312 346.53125 28.484375 275.195312 28.484375 187.507812 C 28.484375 99.824219 99.820312 28.484375 187.507812 28.484375 C 275.195312 28.484375 346.53125 99.824219 346.53125 187.507812 Z M 360.773438 187.441406 C 360.738281 91.980469 283.101562 14.320312 187.648438 14.242188 L 360.773438 14.242188 Z M 367.898438 0 L 7.121094 0 C 3.191406 0 0 3.1875 0 7.121094 L 0 367.898438 C 0 371.832031 3.191406 375.019531 7.121094 375.019531 L 367.898438 375.019531 C 371.828125 375.019531 375.019531 371.832031 375.019531 367.898438 L 375.019531 7.121094 C 375.019531 3.1875 371.828125 0 367.898438 0 " fill-opacity="1" fill-rule="nonzero"/></svg>