<svg xmlns="http://www.w3.org/2000/svg" xmlns:xlink="http://www.w3.org/1999/xlink" width="500" zoomAndPan="magnify" viewBox="0 0 375 374.999991" height="500" preserveAspectRatio="xMidYMid meet" version="1.0"><defs><clipPath id="88dbdf50e8"><path d="M 0 0.851562 L 375 0.851562 L 375 374.351562 L 0 374.351562 Z M 0 0.851562 " clip-rule="nonzero"/></clipPath></defs><g clip-path="url(#88dbdf50e8)"><path fill="#ffffff" d="M 202.019531 9.835938 C 199.269531 4.332031 193.648438 0.855469 187.5 0.855469 C 181.351562 0.855469 175.726562 4.332031 172.980469 9.835938 L 2.570312 350.839844 C 0.0546875 355.878906 0.324219 361.855469 3.28125 366.644531 C 6.238281 371.433594 11.464844 374.351562 17.09375 374.351562 L 357.90625 374.351562 C 363.535156 374.351562 368.757812 371.433594 371.71875 366.644531 C 374.675781 361.855469 374.941406 355.878906 372.425781 350.839844 Z M 187.5 53.421875 L 331.636719 341.859375 C 268.132812 341.859375 106.863281 341.859375 43.363281 341.859375 C 43.363281 341.859375 187.5 53.421875 187.5 53.421875 Z M 187.5 53.421875 " fill-opacity="1" fill-rule="evenodd"/></g></svg>