<svg xmlns="http://www.w3.org/2000/svg" xmlns:xlink="http://www.w3.org/1999/xlink" width="500" zoomAndPan="magnify" viewBox="0 0 375 374.999991" height="500" preserveAspectRatio="xMidYMid meet" version="1.0"><defs><clipPath id="6aac7dfabd"><path d="M 0 45.46875 L 375 45.46875 L 375 374.71875 L 0 374.71875 Z M 0 45.46875 " clip-rule="nonzero"/></clipPath></defs><g clip-path="url(#6aac7dfabd)"><path fill="#ffffff" d="M 187.578125 45.46875 C 186.410156 45.5 185.261719 45.683594 184.140625 46.015625 C 183.015625 46.347656 181.957031 46.820312 180.957031 47.433594 C 179.960938 48.042969 179.058594 48.773438 178.25 49.625 C 177.445312 50.472656 176.761719 51.410156 176.203125 52.4375 L 120.800781 154.164062 L 20.429688 100.285156 C 19.65625 99.855469 18.847656 99.503906 18.003906 99.230469 C 17.160156 98.960938 16.296875 98.773438 15.417969 98.675781 C 14.535156 98.574219 13.65625 98.5625 12.769531 98.640625 C 11.886719 98.714844 11.019531 98.878906 10.171875 99.125 C 9.320312 99.375 8.5 99.703125 7.714844 100.117188 C 6.929688 100.527344 6.195312 101.011719 5.503906 101.566406 C 4.816406 102.125 4.1875 102.746094 3.625 103.429688 C 3.058594 104.109375 2.566406 104.839844 2.148438 105.621094 C 1.726562 106.402344 1.386719 107.214844 1.132812 108.0625 C 0.875 108.910156 0.703125 109.777344 0.617188 110.65625 C 0.53125 111.539062 0.535156 112.421875 0.625 113.300781 C 0.714844 114.183594 0.890625 115.046875 1.152344 115.890625 C 1.417969 116.738281 1.757812 117.550781 2.183594 118.328125 C 2.609375 119.105469 3.105469 119.832031 3.671875 120.511719 C 4.242188 121.191406 4.875 121.808594 5.566406 122.359375 C 6.257812 122.914062 6.996094 123.394531 7.785156 123.800781 L 108.03125 177.609375 L 65.46875 255.785156 L 7.785156 286.742188 C 6.996094 287.148438 6.257812 287.625 5.566406 288.179688 C 4.875 288.734375 4.242188 289.351562 3.671875 290.027344 C 3.105469 290.707031 2.609375 291.4375 2.183594 292.214844 C 1.757812 292.992188 1.417969 293.804688 1.152344 294.648438 C 0.890625 295.496094 0.714844 296.359375 0.625 297.242188 C 0.535156 298.121094 0.53125 299.003906 0.617188 299.882812 C 0.703125 300.765625 0.875 301.628906 1.128906 302.476562 C 1.386719 303.324219 1.726562 304.140625 2.144531 304.921875 C 2.566406 305.699219 3.058594 306.429688 3.625 307.113281 C 4.1875 307.796875 4.816406 308.417969 5.503906 308.972656 C 6.195312 309.53125 6.929688 310.015625 7.714844 310.425781 C 8.5 310.835938 9.320312 311.167969 10.171875 311.414062 C 11.019531 311.664062 11.886719 311.824219 12.769531 311.902344 C 13.65625 311.976562 14.535156 311.964844 15.417969 311.867188 C 16.296875 311.765625 17.160156 311.582031 18.003906 311.308594 C 18.847656 311.039062 19.65625 310.6875 20.429688 310.253906 L 42.140625 298.59375 L 11.4375 354.992188 C 11.164062 355.5 10.921875 356.019531 10.714844 356.558594 C 10.503906 357.09375 10.332031 357.644531 10.195312 358.203125 C 10.058594 358.765625 9.960938 359.328125 9.894531 359.902344 C 9.832031 360.476562 9.804688 361.050781 9.816406 361.625 C 9.828125 362.203125 9.875 362.773438 9.960938 363.34375 C 10.046875 363.914062 10.167969 364.476562 10.328125 365.03125 C 10.484375 365.585938 10.679688 366.128906 10.90625 366.65625 C 11.136719 367.183594 11.398438 367.699219 11.691406 368.191406 C 11.988281 368.6875 12.3125 369.164062 12.667969 369.617188 C 13.023438 370.070312 13.410156 370.496094 13.820312 370.902344 C 14.234375 371.304688 14.667969 371.679688 15.128906 372.027344 C 15.589844 372.375 16.070312 372.6875 16.570312 372.972656 C 17.074219 373.257812 17.589844 373.511719 18.125 373.726562 C 18.660156 373.945312 19.203125 374.128906 19.761719 374.277344 C 20.320312 374.421875 20.882812 374.535156 21.457031 374.609375 C 22.027344 374.683594 22.601562 374.71875 23.179688 374.71875 L 352.710938 374.71875 C 353.289062 374.71875 353.863281 374.683594 354.433594 374.609375 C 355.007812 374.535156 355.570312 374.421875 356.128906 374.277344 C 356.6875 374.128906 357.230469 373.945312 357.765625 373.726562 C 358.300781 373.511719 358.816406 373.257812 359.320312 372.972656 C 359.820312 372.6875 360.300781 372.375 360.761719 372.027344 C 361.222656 371.679688 361.65625 371.304688 362.070312 370.902344 C 362.480469 370.496094 362.867188 370.070312 363.222656 369.617188 C 363.578125 369.164062 363.902344 368.6875 364.199219 368.191406 C 364.492188 367.699219 364.753906 367.183594 364.984375 366.65625 C 365.210938 366.128906 365.40625 365.585938 365.5625 365.03125 C 365.722656 364.476562 365.84375 363.914062 365.929688 363.34375 C 366.015625 362.777344 366.0625 362.203125 366.074219 361.625 C 366.085938 361.050781 366.058594 360.476562 365.996094 359.902344 C 365.929688 359.332031 365.832031 358.765625 365.695312 358.203125 C 365.558594 357.644531 365.386719 357.09375 365.175781 356.558594 C 364.96875 356.019531 364.726562 355.5 364.453125 354.992188 L 333.855469 298.800781 L 355.179688 310.253906 C 355.953125 310.6875 356.765625 311.039062 357.609375 311.308594 C 358.453125 311.582031 359.3125 311.765625 360.195312 311.867188 C 361.074219 311.964844 361.957031 311.976562 362.839844 311.902344 C 363.722656 311.824219 364.589844 311.664062 365.441406 311.414062 C 366.292969 311.167969 367.113281 310.835938 367.898438 310.425781 C 368.683594 310.015625 369.417969 309.53125 370.109375 308.972656 C 370.796875 308.417969 371.421875 307.796875 371.988281 307.113281 C 372.554688 306.429688 373.046875 305.699219 373.464844 304.921875 C 373.886719 304.140625 374.222656 303.324219 374.480469 302.476562 C 374.738281 301.628906 374.910156 300.765625 374.996094 299.882812 C 375.082031 299.003906 375.078125 298.121094 374.988281 297.242188 C 374.898438 296.359375 374.722656 295.496094 374.457031 294.648438 C 374.195312 293.804688 373.851562 292.992188 373.429688 292.214844 C 373.003906 291.4375 372.507812 290.707031 371.9375 290.027344 C 371.371094 289.351562 370.738281 288.734375 370.046875 288.179688 C 369.355469 287.625 368.613281 287.148438 367.828125 286.742188 L 310.546875 255.996094 L 267.789062 177.488281 L 367.828125 123.800781 C 368.613281 123.394531 369.355469 122.914062 370.046875 122.359375 C 370.738281 121.808594 371.371094 121.191406 371.9375 120.511719 C 372.507812 119.832031 373.003906 119.105469 373.429688 118.328125 C 373.851562 117.550781 374.195312 116.738281 374.457031 115.890625 C 374.722656 115.046875 374.898438 114.183594 374.988281 113.300781 C 375.078125 112.421875 375.082031 111.539062 374.996094 110.65625 C 374.910156 109.777344 374.738281 108.910156 374.480469 108.0625 C 374.222656 107.214844 373.886719 106.402344 373.464844 105.621094 C 373.046875 104.839844 372.554688 104.109375 371.988281 103.429688 C 371.421875 102.746094 370.796875 102.125 370.109375 101.566406 C 369.417969 101.011719 368.683594 100.527344 367.894531 100.117188 C 367.109375 99.703125 366.292969 99.375 365.441406 99.125 C 364.589844 98.878906 363.722656 98.714844 362.839844 98.640625 C 361.957031 98.5625 361.074219 98.574219 360.195312 98.675781 C 359.3125 98.773438 358.453125 98.960938 357.609375 99.230469 C 356.765625 99.503906 355.953125 99.855469 355.179688 100.285156 L 255.019531 154.042969 L 199.6875 52.4375 C 199.097656 51.355469 198.375 50.375 197.511719 49.492188 C 196.652344 48.609375 195.6875 47.859375 194.617188 47.246094 C 193.550781 46.632812 192.417969 46.171875 191.222656 45.871094 C 190.027344 45.570312 188.8125 45.433594 187.578125 45.46875 Z M 187.945312 86.765625 L 231.46875 166.679688 L 187.804688 190.125 L 144.351562 166.800781 Z M 244.234375 190.125 L 267.542969 232.914062 L 216.039062 205.261719 Z M 131.585938 190.246094 L 159.574219 205.261719 L 108.46875 232.707031 Z M 187.804688 220.417969 L 290.855469 275.738281 L 330.21875 348.023438 L 45.671875 348.023438 L 85.140625 275.53125 Z M 187.804688 220.417969 " fill-opacity="1" fill-rule="nonzero"/></g></svg>