<svg xmlns="http://www.w3.org/2000/svg" xmlns:xlink="http://www.w3.org/1999/xlink" width="500" zoomAndPan="magnify" viewBox="0 0 375 374.999991" height="500" preserveAspectRatio="xMidYMid meet" version="1.0"><defs><clipPath id="36b65aaba7"><path d="M 16.207031 0 L 358.875 0 L 358.875 375 L 16.207031 375 Z M 16.207031 0 " clip-rule="nonzero"/></clipPath></defs><g clip-path="url(#36b65aaba7)"><path fill="#ffffff" d="M 344.792969 367.984375 C 344.792969 371.871094 341.640625 375.023438 337.75 375.023438 L 37.328125 375.023438 C 33.441406 375.023438 30.289062 371.871094 30.289062 367.984375 C 30.289062 364.09375 33.441406 360.945312 37.328125 360.945312 L 337.75 360.945312 C 341.640625 360.945312 344.792969 364.09375 344.792969 367.984375 Z M 94.796875 109.3125 C 94.355469 107.625 94.117188 106.304688 94.082031 105.351562 C 94.042969 104.398438 94.339844 103.664062 94.960938 103.152344 C 95.582031 102.640625 96.589844 102.308594 97.988281 102.160156 C 99.378906 102.015625 101.25 101.941406 103.597656 101.941406 C 105.871094 101.941406 107.667969 101.996094 108.988281 102.105469 C 110.308594 102.214844 111.316406 102.417969 112.011719 102.710938 C 112.710938 103.003906 113.1875 103.40625 113.445312 103.921875 C 113.699219 104.4375 113.902344 105.09375 114.046875 105.902344 L 146.0625 225.128906 L 146.175781 225.128906 L 176.539062 106.121094 C 176.757812 105.316406 177.035156 104.636719 177.363281 104.085938 C 177.695312 103.535156 178.226562 103.113281 178.960938 102.820312 C 179.691406 102.527344 180.738281 102.308594 182.09375 102.160156 C 183.453125 102.015625 185.230469 101.941406 187.429688 101.941406 C 189.484375 101.941406 191.117188 102.015625 192.324219 102.160156 C 193.539062 102.308594 194.507812 102.527344 195.242188 102.820312 C 195.976562 103.113281 196.507812 103.535156 196.835938 104.085938 C 197.167969 104.636719 197.441406 105.316406 197.664062 106.121094 L 230.339844 225.128906 L 230.558594 225.128906 L 261.914062 106.011719 C 262.132812 105.277344 262.355469 104.636719 262.574219 104.085938 C 262.796875 103.535156 263.25 103.113281 263.949219 102.820312 C 264.644531 102.527344 265.636719 102.308594 266.921875 102.160156 C 268.203125 102.015625 269.90625 101.941406 272.035156 101.941406 C 274.234375 101.941406 275.976562 102.035156 277.261719 102.214844 C 278.542969 102.398438 279.476562 102.746094 280.066406 103.261719 C 280.652344 103.773438 280.929688 104.507812 280.890625 105.460938 C 280.851562 106.414062 280.652344 107.734375 280.285156 109.421875 L 242.550781 240.746094 C 242.253906 241.773438 241.816406 242.597656 241.230469 243.21875 C 240.640625 243.84375 239.835938 244.320312 238.8125 244.648438 C 237.78125 244.980469 236.515625 245.21875 235.015625 245.367188 C 233.511719 245.511719 231.660156 245.585938 229.460938 245.585938 C 227.183594 245.585938 225.257812 245.511719 223.683594 245.367188 C 222.105469 245.21875 220.800781 244.980469 219.777344 244.648438 C 218.75 244.320312 217.980469 243.84375 217.46875 243.21875 C 216.953125 242.597656 216.550781 241.773438 216.257812 240.746094 L 186.441406 133.289062 L 186.21875 133.289062 L 158.714844 240.746094 C 158.496094 241.773438 158.128906 242.597656 157.613281 243.21875 C 157.101562 243.84375 156.371094 244.320312 155.414062 244.648438 C 154.460938 244.980469 153.234375 245.21875 151.730469 245.367188 C 150.226562 245.511719 148.300781 245.585938 145.953125 245.585938 C 143.535156 245.585938 141.515625 245.511719 139.902344 245.367188 C 138.289062 245.21875 136.96875 244.980469 135.941406 244.648438 C 134.914062 244.320312 134.128906 243.84375 133.578125 243.21875 C 133.027344 242.597656 132.640625 241.773438 132.421875 240.746094 Z M 187.542969 14.082031 C 274.25 14.082031 344.792969 84.605469 344.792969 171.289062 C 344.792969 257.976562 274.25 328.496094 187.542969 328.496094 C 100.832031 328.496094 30.289062 257.976562 30.289062 171.289062 C 30.289062 84.605469 100.832031 14.082031 187.542969 14.082031 Z M 187.542969 342.578125 C 282.015625 342.578125 358.875 265.738281 358.875 171.289062 C 358.875 76.84375 282.015625 0 187.542969 0 C 93.066406 0 16.207031 76.84375 16.207031 171.289062 C 16.207031 265.738281 93.066406 342.578125 187.542969 342.578125 " fill-opacity="1" fill-rule="nonzero"/></g></svg>