<svg xmlns="http://www.w3.org/2000/svg" xmlns:xlink="http://www.w3.org/1999/xlink" width="500" zoomAndPan="magnify" viewBox="0 0 375 374.999991" height="500" preserveAspectRatio="xMidYMid meet" version="1.0"><defs><clipPath id="3aa8869e8f"><path d="M 0 0 L 374.984375 0 L 374.984375 374.984375 L 0 374.984375 Z M 0 0 " clip-rule="nonzero"/></clipPath></defs><g clip-path="url(#3aa8869e8f)"><path fill="#ffffff" d="M 374.984375 187.496094 C 374.984375 236.417969 356.128906 281.011719 325.324219 314.429688 L 372.726562 361.832031 C 375.738281 364.839844 375.738281 369.71875 372.726562 372.726562 C 371.21875 374.230469 369.25 374.984375 367.277344 374.984375 C 365.304688 374.984375 363.335938 374.230469 361.832031 372.726562 L 314.429688 325.324219 C 281.011719 356.128906 236.417969 374.984375 187.496094 374.984375 C 138.566406 374.984375 93.976562 356.128906 60.554688 325.324219 L 13.152344 372.726562 C 11.652344 374.230469 9.679688 374.984375 7.707031 374.984375 C 5.734375 374.984375 3.761719 374.230469 2.257812 372.726562 C -0.75 369.71875 -0.75 364.839844 2.257812 361.832031 L 49.660156 314.429688 C 18.855469 281.011719 0 236.417969 0 187.496094 C 0 138.566406 18.855469 93.976562 49.660156 60.554688 L 2.257812 13.152344 C -0.75 10.144531 -0.75 5.261719 2.257812 2.257812 C 5.265625 -0.753906 10.148438 -0.753906 13.152344 2.257812 L 60.554688 49.660156 C 93.976562 18.855469 138.566406 0 187.496094 0 C 236.417969 0 281.011719 18.855469 314.429688 49.660156 L 361.832031 2.257812 C 364.84375 -0.753906 369.714844 -0.753906 372.726562 2.257812 C 375.738281 5.261719 375.738281 10.144531 372.726562 13.152344 L 325.324219 60.550781 C 356.128906 93.972656 374.984375 138.566406 374.984375 187.496094 " fill-opacity="1" fill-rule="nonzero"/></g></svg>