<svg xmlns="http://www.w3.org/2000/svg" xmlns:xlink="http://www.w3.org/1999/xlink" width="500" zoomAndPan="magnify" viewBox="0 0 375 374.999991" height="500" preserveAspectRatio="xMidYMid meet" version="1.0"><defs><clipPath id="83a6d635ad"><path d="M 30.011719 0 L 344.976562 0 L 344.976562 375 L 30.011719 375 Z M 30.011719 0 " clip-rule="nonzero"/></clipPath></defs><g clip-path="url(#83a6d635ad)"><path fill="#ffffff" d="M 332.035156 368.53125 C 332.035156 372.105469 329.136719 375.003906 325.5625 375.003906 L 49.425781 375.003906 C 45.851562 375.003906 42.953125 372.105469 42.953125 368.53125 C 42.953125 364.957031 45.851562 362.058594 49.425781 362.058594 L 325.5625 362.058594 C 329.136719 362.058594 332.035156 364.957031 332.035156 368.53125 Z M 332.035156 338.328125 C 332.035156 341.90625 329.136719 344.800781 325.5625 344.800781 L 49.425781 344.800781 C 45.851562 344.800781 42.953125 341.90625 42.953125 338.328125 C 42.953125 334.753906 45.851562 331.855469 49.425781 331.855469 L 325.5625 331.855469 C 329.136719 331.855469 332.035156 334.753906 332.035156 338.328125 Z M 102.246094 100.503906 C 101.839844 98.953125 101.621094 97.738281 101.585938 96.863281 C 101.554688 95.984375 101.824219 95.3125 102.394531 94.839844 C 102.96875 94.367188 103.894531 94.066406 105.175781 93.929688 C 106.457031 93.792969 108.175781 93.726562 110.335938 93.726562 C 112.425781 93.726562 114.074219 93.777344 115.289062 93.878906 C 116.503906 93.980469 117.429688 94.164062 118.070312 94.433594 C 118.710938 94.703125 119.148438 95.078125 119.382812 95.546875 C 119.621094 96.019531 119.804688 96.625 119.941406 97.367188 L 149.367188 206.984375 L 149.46875 206.984375 L 177.378906 97.570312 C 177.582031 96.828125 177.835938 96.203125 178.136719 95.699219 C 178.441406 95.191406 178.929688 94.804688 179.605469 94.535156 C 180.277344 94.265625 181.238281 94.066406 182.488281 93.929688 C 183.734375 93.792969 185.367188 93.726562 187.390625 93.726562 C 189.277344 93.726562 190.777344 93.792969 191.890625 93.929688 C 193.003906 94.066406 193.898438 94.265625 194.570312 94.535156 C 195.246094 94.804688 195.734375 95.191406 196.035156 95.699219 C 196.339844 96.203125 196.59375 96.828125 196.792969 97.570312 L 226.832031 206.984375 L 227.035156 206.984375 L 255.855469 97.46875 C 256.058594 96.792969 256.261719 96.203125 256.460938 95.699219 C 256.664062 95.191406 257.082031 94.804688 257.726562 94.535156 C 258.367188 94.265625 259.277344 94.066406 260.457031 93.929688 C 261.632812 93.792969 263.199219 93.726562 265.160156 93.726562 C 267.179688 93.726562 268.78125 93.8125 269.964844 93.980469 C 271.140625 94.148438 272 94.46875 272.542969 94.941406 C 273.082031 95.414062 273.332031 96.085938 273.300781 96.960938 C 273.261719 97.839844 273.082031 99.054688 272.742188 100.605469 L 238.058594 221.347656 C 237.785156 222.289062 237.378906 223.046875 236.84375 223.621094 C 236.300781 224.195312 235.558594 224.632812 234.621094 224.933594 C 233.671875 225.238281 232.507812 225.457031 231.132812 225.59375 C 229.746094 225.726562 228.046875 225.796875 226.023438 225.796875 C 223.929688 225.796875 222.160156 225.726562 220.714844 225.59375 C 219.261719 225.457031 218.066406 225.238281 217.125 224.933594 C 216.179688 224.632812 215.46875 224.195312 215.003906 223.621094 C 214.527344 223.046875 214.15625 222.289062 213.890625 221.347656 L 186.480469 122.546875 L 186.277344 122.546875 L 160.996094 221.347656 C 160.792969 222.289062 160.457031 223.046875 159.984375 223.621094 C 159.515625 224.195312 158.839844 224.632812 157.964844 224.933594 C 157.085938 225.238281 155.957031 225.457031 154.578125 225.59375 C 153.195312 225.726562 151.425781 225.796875 149.265625 225.796875 C 147.042969 225.796875 145.1875 225.726562 143.707031 225.59375 C 142.222656 225.457031 141.007812 225.238281 140.0625 224.933594 C 139.121094 224.632812 138.394531 224.195312 137.890625 223.621094 C 137.386719 223.046875 137.03125 222.289062 136.828125 221.347656 Z M 187.496094 12.949219 C 267.195312 12.949219 332.035156 77.789062 332.035156 157.488281 C 332.035156 237.1875 267.195312 302.027344 187.496094 302.027344 C 107.796875 302.027344 42.957031 237.1875 42.957031 157.488281 C 42.957031 77.789062 107.796875 12.949219 187.496094 12.949219 Z M 187.496094 314.96875 C 274.332031 314.96875 344.976562 244.324219 344.976562 157.488281 C 344.976562 70.652344 274.332031 0 187.496094 0 C 100.65625 0 30.011719 70.652344 30.011719 157.488281 C 30.011719 244.324219 100.65625 314.96875 187.496094 314.96875 " fill-opacity="1" fill-rule="nonzero"/></g></svg>