<svg xmlns="http://www.w3.org/2000/svg" xmlns:xlink="http://www.w3.org/1999/xlink" width="500" zoomAndPan="magnify" viewBox="0 0 375 374.999991" height="500" preserveAspectRatio="xMidYMid meet" version="1.0"><defs><clipPath id="2aa206822d"><path d="M 4.453125 8.390625 L 370.371094 8.390625 L 370.371094 375 L 4.453125 375 Z M 4.453125 8.390625 " clip-rule="nonzero"/></clipPath></defs><g clip-path="url(#2aa206822d)"><path fill="#ffffff" d="M 355.335938 401.398438 C 355.335938 405.550781 351.96875 408.914062 347.816406 408.914062 L 27.007812 408.914062 C 22.855469 408.914062 19.488281 405.550781 19.488281 401.398438 C 19.488281 397.242188 22.855469 393.878906 27.007812 393.878906 L 347.816406 393.878906 C 351.96875 393.878906 355.335938 397.242188 355.335938 401.398438 Z M 88.375 125.136719 C 87.90625 123.335938 87.648438 121.921875 87.609375 120.90625 C 87.570312 119.890625 87.886719 119.105469 88.550781 118.558594 C 89.214844 118.011719 90.292969 117.65625 91.78125 117.5 C 93.269531 117.34375 95.265625 117.265625 97.773438 117.265625 C 100.203125 117.265625 102.121094 117.324219 103.527344 117.441406 C 104.941406 117.558594 106.015625 117.773438 106.761719 118.085938 C 107.503906 118.402344 108.015625 118.832031 108.289062 119.378906 C 108.5625 119.929688 108.777344 120.632812 108.933594 121.492188 L 143.121094 248.828125 L 143.238281 248.828125 L 175.664062 121.726562 C 175.898438 120.867188 176.191406 120.144531 176.546875 119.554688 C 176.898438 118.96875 177.464844 118.519531 178.25 118.207031 C 179.03125 117.890625 180.148438 117.65625 181.597656 117.5 C 183.046875 117.34375 184.945312 117.265625 187.296875 117.265625 C 189.488281 117.265625 191.230469 117.34375 192.523438 117.5 C 193.816406 117.65625 194.851562 117.890625 195.636719 118.207031 C 196.421875 118.519531 196.988281 118.96875 197.339844 119.554688 C 197.691406 120.144531 197.984375 120.867188 198.222656 121.726562 L 233.117188 248.828125 L 233.351562 248.828125 L 266.835938 121.613281 C 267.066406 120.828125 267.304688 120.144531 267.539062 119.554688 C 267.773438 118.96875 268.261719 118.519531 269.007812 118.207031 C 269.75 117.890625 270.808594 117.65625 272.179688 117.5 C 273.546875 117.34375 275.367188 117.265625 277.640625 117.265625 C 279.992188 117.265625 281.851562 117.363281 283.222656 117.558594 C 284.589844 117.753906 285.589844 118.125 286.21875 118.675781 C 286.84375 119.222656 287.140625 120.007812 287.097656 121.023438 C 287.058594 122.042969 286.84375 123.449219 286.453125 125.253906 L 246.15625 265.507812 C 245.839844 266.605469 245.371094 267.484375 244.746094 268.152344 C 244.117188 268.816406 243.253906 269.324219 242.160156 269.675781 C 241.0625 270.03125 239.710938 270.285156 238.109375 270.441406 C 236.5 270.597656 234.523438 270.675781 232.175781 270.675781 C 229.746094 270.675781 227.6875 270.597656 226.007812 270.441406 C 224.320312 270.285156 222.929688 270.03125 221.839844 269.675781 C 220.738281 269.324219 219.917969 268.816406 219.371094 268.152344 C 218.820312 267.484375 218.390625 266.605469 218.078125 265.507812 L 186.238281 150.746094 L 186.003906 150.746094 L 156.632812 265.507812 C 156.394531 266.605469 156.007812 267.484375 155.457031 268.152344 C 154.910156 268.816406 154.125 269.324219 153.105469 269.675781 C 152.089844 270.03125 150.777344 270.285156 149.171875 270.441406 C 147.566406 270.597656 145.511719 270.675781 143.003906 270.675781 C 140.421875 270.675781 138.265625 270.597656 136.542969 270.441406 C 134.820312 270.285156 133.410156 270.03125 132.3125 269.675781 C 131.214844 269.324219 130.375 268.816406 129.789062 268.152344 C 129.199219 267.484375 128.789062 266.605469 128.554688 265.507812 Z M 187.414062 23.429688 C 280.007812 23.429688 355.335938 98.75 355.335938 191.328125 C 355.335938 283.910156 280.007812 359.226562 187.414062 359.226562 C 94.820312 359.226562 19.492188 283.910156 19.492188 191.328125 C 19.492188 98.75 94.820312 23.429688 187.414062 23.429688 Z M 187.414062 374.261719 C 288.296875 374.261719 370.375 292.199219 370.375 191.328125 C 370.375 90.460938 288.296875 8.394531 187.414062 8.394531 C 86.527344 8.394531 4.453125 90.460938 4.453125 191.328125 C 4.453125 292.199219 86.527344 374.261719 187.414062 374.261719 " fill-opacity="1" fill-rule="nonzero"/></g></svg>