<svg xmlns="http://www.w3.org/2000/svg" xmlns:xlink="http://www.w3.org/1999/xlink" width="500" zoomAndPan="magnify" viewBox="0 0 375 374.999991" height="500" preserveAspectRatio="xMidYMid meet" version="1.0"><path fill="#ffffff" d="M 284.824219 277.703125 L 284.824219 97.316406 C 284.824219 93.382812 281.632812 90.195312 277.703125 90.195312 C 273.769531 90.195312 270.582031 93.382812 270.582031 97.316406 L 270.582031 277.703125 C 270.582031 281.632812 273.769531 284.824219 277.703125 284.824219 C 281.632812 284.824219 284.824219 281.632812 284.824219 277.703125 Z M 104.4375 277.703125 L 104.4375 97.316406 C 104.4375 93.382812 101.246094 90.195312 97.316406 90.195312 C 93.382812 90.195312 90.195312 93.382812 90.195312 97.316406 L 90.195312 277.703125 C 90.195312 281.632812 93.382812 284.824219 97.316406 284.824219 C 101.246094 284.824219 104.4375 281.632812 104.4375 277.703125 Z M 194.628906 277.703125 L 194.628906 97.316406 C 194.628906 93.382812 191.441406 90.195312 187.507812 90.195312 C 183.578125 90.195312 180.386719 93.382812 180.386719 97.316406 L 180.386719 277.703125 C 180.386719 281.632812 183.578125 284.824219 187.507812 284.824219 C 191.441406 284.824219 194.628906 281.632812 194.628906 277.703125 Z M 14.242188 360.777344 L 360.773438 360.777344 L 360.773438 14.242188 L 14.242188 14.242188 Z M 367.898438 375.019531 L 7.121094 375.019531 C 3.191406 375.019531 0 371.832031 0 367.898438 L 0 7.121094 C 0 3.191406 3.191406 0 7.121094 0 L 367.898438 0 C 371.828125 0 375.019531 3.191406 375.019531 7.121094 L 375.019531 367.898438 C 375.019531 371.832031 371.828125 375.019531 367.898438 375.019531 " fill-opacity="1" fill-rule="nonzero"/></svg>