<svg xmlns="http://www.w3.org/2000/svg" xmlns:xlink="http://www.w3.org/1999/xlink" width="500" zoomAndPan="magnify" viewBox="0 0 375 374.999991" height="500" preserveAspectRatio="xMidYMid meet" version="1.0"><path fill="#ffffff" d="M 360.773438 360.777344 L 14.242188 360.777344 L 14.242188 190.449219 L 190.453125 14.242188 L 360.773438 14.242188 Z M 84.203125 14.242188 L 14.242188 84.203125 L 14.242188 14.242188 Z M 14.242188 104.339844 L 104.339844 14.242188 L 170.3125 14.242188 L 14.242188 170.3125 Z M 367.898438 0 L 7.121094 0 C 3.191406 0 0 3.1875 0 7.121094 L 0 367.898438 C 0 371.832031 3.191406 375.019531 7.121094 375.019531 L 367.898438 375.019531 C 371.828125 375.019531 375.019531 371.832031 375.019531 367.898438 L 375.019531 7.121094 C 375.019531 3.1875 371.828125 0 367.898438 0 " fill-opacity="1" fill-rule="nonzero"/></svg>