<svg xmlns="http://www.w3.org/2000/svg" xmlns:xlink="http://www.w3.org/1999/xlink" width="500" zoomAndPan="magnify" viewBox="0 0 375 374.999991" height="500" preserveAspectRatio="xMidYMid meet" version="1.0"><path fill="#ffffff" d="M 284.824219 187.507812 C 284.824219 183.578125 281.632812 180.390625 277.703125 180.390625 L 97.316406 180.390625 C 93.382812 180.390625 90.195312 183.578125 90.195312 187.507812 C 90.195312 191.441406 93.382812 194.628906 97.316406 194.628906 L 277.703125 194.628906 C 281.632812 194.628906 284.824219 191.441406 284.824219 187.507812 Z M 14.242188 360.777344 L 360.773438 360.777344 L 360.773438 14.242188 L 14.242188 14.242188 Z M 367.898438 375.019531 L 7.121094 375.019531 C 3.191406 375.019531 0 371.832031 0 367.898438 L 0 7.121094 C 0 3.191406 3.191406 0 7.121094 0 L 367.898438 0 C 371.828125 0 375.019531 3.191406 375.019531 7.121094 L 375.019531 367.898438 C 375.019531 371.832031 371.828125 375.019531 367.898438 375.019531 " fill-opacity="1" fill-rule="nonzero"/></svg>