<svg xmlns="http://www.w3.org/2000/svg" xmlns:xlink="http://www.w3.org/1999/xlink" width="500" zoomAndPan="magnify" viewBox="0 0 375 374.999991" height="500" preserveAspectRatio="xMidYMid meet" version="1.0"><defs><filter x="0%" y="0%" width="100%" height="100%" id="3ecb9ef85a"><feColorMatrix values="0 0 0 0 1 0 0 0 0 1 0 0 0 0 1 0 0 0 1 0" color-interpolation-filters="sRGB"/></filter><clipPath id="639d717c43"><path d="M 28.085938 121.683594 L 41.363281 121.683594 L 41.363281 135.265625 L 28.085938 135.265625 Z M 28.085938 121.683594 " clip-rule="nonzero"/></clipPath><clipPath id="12bc17dae5"><path d="M 41.324219 126.523438 C 41.324219 130.726562 40.800781 131.851562 40.199219 132.675781 C 39.523438 133.5 38.625 134.25 37.648438 134.625 C 36.675781 135.074219 35.550781 135.300781 34.5 135.226562 C 33.449219 135.148438 32.25 134.851562 31.351562 134.25 C 30.523438 133.726562 29.625 132.898438 29.101562 132 C 28.574219 131.101562 28.199219 129.976562 28.125 128.925781 C 28.050781 127.875 28.273438 126.675781 28.726562 125.699219 C 29.175781 124.800781 29.925781 123.824219 30.75 123.148438 C 31.574219 122.550781 32.625 122.023438 33.675781 121.875 C 34.726562 121.648438 35.925781 121.726562 36.898438 122.023438 C 37.875 122.398438 39.675781 123.75 39.675781 123.75 " clip-rule="nonzero"/></clipPath><mask id="cb15849517"><g filter="url(#3ecb9ef85a)"><rect x="-37.5" width="450" fill="#ffffff" y="-37.499999" height="449.999989" fill-opacity="0.5"/></g></mask><clipPath id="9fac0c4a86"><path d="M 0.0859375 0.683594 L 13.363281 0.683594 L 13.363281 14.265625 L 0.0859375 14.265625 Z M 0.0859375 0.683594 " clip-rule="nonzero"/></clipPath><clipPath id="347137c2cf"><path d="M 13.324219 5.523438 C 13.324219 9.726562 12.800781 10.851562 12.199219 11.675781 C 11.523438 12.5 10.625 13.25 9.648438 13.625 C 8.675781 14.074219 7.550781 14.300781 6.5 14.226562 C 5.449219 14.148438 4.25 13.851562 3.351562 13.25 C 2.523438 12.726562 1.625 11.898438 1.101562 11 C 0.574219 10.101562 0.199219 8.976562 0.125 7.925781 C 0.0507812 6.875 0.273438 5.675781 0.726562 4.699219 C 1.175781 3.800781 1.925781 2.824219 2.75 2.148438 C 3.574219 1.550781 4.625 1.023438 5.675781 0.875 C 6.726562 0.648438 7.925781 0.726562 8.898438 1.023438 C 9.875 1.398438 11.675781 2.75 11.675781 2.75 " clip-rule="nonzero"/></clipPath><clipPath id="8ee5666858"><rect x="0" width="14" y="0" height="15"/></clipPath></defs><path fill="#ffffff" d="M 14.242188 360.777344 L 14.242188 23.054688 C 64.25 65.53125 125.867188 86.820312 187.507812 86.820312 C 249.148438 86.820312 310.765625 65.53125 360.773438 23.054688 L 360.773438 360.777344 Z M 349.082031 14.242188 C 255.273438 91.921875 119.742188 91.921875 25.933594 14.242188 Z M 374.964844 6.59375 C 374.945312 6.332031 374.933594 6.070312 374.882812 5.808594 C 374.839844 5.578125 374.765625 5.359375 374.703125 5.136719 C 374.636719 4.914062 374.582031 4.695312 374.496094 4.480469 C 374.402344 4.246094 374.28125 4.03125 374.164062 3.8125 C 374.066406 3.625 373.976562 3.429688 373.859375 3.246094 C 373.703125 3.007812 373.515625 2.792969 373.332031 2.574219 C 373.230469 2.453125 373.152344 2.316406 373.042969 2.203125 C 373.023438 2.183594 373 2.171875 372.984375 2.152344 C 372.773438 1.9375 372.539062 1.757812 372.304688 1.570312 C 372.167969 1.460938 372.046875 1.335938 371.90625 1.242188 C 371.710938 1.109375 371.492188 1.007812 371.28125 0.894531 C 371.085938 0.789062 370.894531 0.660156 370.691406 0.574219 C 370.53125 0.503906 370.355469 0.46875 370.191406 0.414062 C 369.917969 0.320312 369.648438 0.214844 369.367188 0.160156 C 369.222656 0.125 369.0625 0.125 368.910156 0.101562 C 368.597656 0.0585938 368.285156 0.0117188 367.96875 0.0078125 C 367.945312 0.0078125 367.921875 0 367.898438 0 L 7.121094 0 C 7.09375 0 7.070312 0.0078125 7.042969 0.0078125 C 6.75 0.0117188 6.464844 0.0585938 6.175781 0.0976562 C 5.996094 0.121094 5.816406 0.121094 5.640625 0.160156 C 5.402344 0.210938 5.167969 0.300781 4.933594 0.378906 C 4.730469 0.445312 4.519531 0.492188 4.324219 0.578125 C 4.144531 0.652344 3.980469 0.765625 3.808594 0.855469 C 3.570312 0.980469 3.328125 1.089844 3.109375 1.242188 C 2.976562 1.335938 2.859375 1.457031 2.730469 1.554688 C 2.488281 1.746094 2.246094 1.933594 2.03125 2.152344 C 2.015625 2.171875 1.992188 2.183594 1.976562 2.203125 C 1.863281 2.316406 1.785156 2.453125 1.683594 2.574219 C 1.5 2.792969 1.316406 3.007812 1.160156 3.246094 C 1.039062 3.429688 0.949219 3.625 0.851562 3.8125 C 0.734375 4.03125 0.613281 4.246094 0.519531 4.480469 C 0.433594 4.695312 0.378906 4.914062 0.316406 5.136719 C 0.25 5.359375 0.175781 5.578125 0.132812 5.808594 C 0.0859375 6.070312 0.0703125 6.332031 0.0546875 6.59375 C 0.0390625 6.769531 0 6.941406 0 7.121094 L 0 367.898438 C 0 371.832031 3.191406 375.019531 7.121094 375.019531 L 367.898438 375.019531 C 371.828125 375.019531 375.019531 371.832031 375.019531 367.898438 L 375.019531 7.121094 C 375.019531 6.941406 374.976562 6.769531 374.964844 6.59375 " fill-opacity="1" fill-rule="nonzero"/><g clip-path="url(#639d717c43)"><g clip-path="url(#12bc17dae5)"><g mask="url(#cb15849517)"><g transform="matrix(1, 0, 0, 1, 28, 121)"><g clip-path="url(#8ee5666858)"><g clip-path="url(#9fac0c4a86)"><g clip-path="url(#347137c2cf)"><rect x="-110.5" width="540" fill="#ffffff" height="539.999987" y="-203.499998" fill-opacity="1"/></g></g></g></g></g></g></g></svg>