<svg xmlns="http://www.w3.org/2000/svg" xmlns:xlink="http://www.w3.org/1999/xlink" width="500" zoomAndPan="magnify" viewBox="0 0 375 374.999991" height="500" preserveAspectRatio="xMidYMid meet" version="1.0"><defs><clipPath id="7598c843de"><path d="M 0 70.3125 L 375 70.3125 L 375 374.8125 L 0 374.8125 Z M 0 70.3125 " clip-rule="nonzero"/></clipPath></defs><g clip-path="url(#7598c843de)"><path fill="#ffffff" d="M 358.511719 70.625 C 358.046875 70.636719 357.589844 70.691406 357.132812 70.785156 C 356.679688 70.878906 356.238281 71.011719 355.808594 71.183594 C 355.378906 71.359375 354.96875 71.566406 354.574219 71.8125 C 354.183594 72.058594 353.816406 72.339844 353.472656 72.652344 C 353.132812 72.960938 352.820312 73.300781 352.535156 73.667969 C 352.253906 74.039062 352.007812 74.425781 351.796875 74.839844 C 351.585938 75.25 351.410156 75.679688 351.273438 76.121094 C 351.136719 76.5625 351.042969 77.015625 350.988281 77.472656 L 341.234375 137.519531 L 324.394531 146.296875 C 289.539062 137.410156 272.222656 106.238281 272.152344 106.117188 C 272.144531 106.101562 272.132812 106.085938 272.125 106.070312 C 272.105469 106.035156 272.082031 106 272.0625 105.964844 C 271.964844 105.789062 271.855469 105.613281 271.742188 105.445312 C 271.382812 104.902344 270.960938 104.40625 270.476562 103.96875 C 269.992188 103.527344 269.457031 103.15625 268.878906 102.851562 C 268.300781 102.546875 267.691406 102.316406 267.054688 102.164062 C 266.417969 102.015625 265.773438 101.941406 265.117188 101.953125 C 264.375 101.96875 263.648438 102.085938 262.9375 102.304688 C 262.226562 102.527344 261.5625 102.84375 260.941406 103.253906 C 260.324219 103.667969 259.773438 104.15625 259.296875 104.726562 C 258.816406 105.296875 258.429688 105.921875 258.128906 106.601562 C 257.210938 108.230469 234.0625 148.695312 187.5 148.695312 C 140.917969 148.695312 117.769531 108.183594 116.871094 106.585938 C 116.585938 105.941406 116.214844 105.34375 115.765625 104.796875 C 115.316406 104.253906 114.800781 103.777344 114.222656 103.371094 C 113.640625 102.964844 113.019531 102.644531 112.351562 102.410156 C 111.683594 102.175781 110.996094 102.03125 110.292969 101.984375 C 110.035156 101.960938 109.777344 101.953125 109.515625 101.953125 C 108.773438 101.96875 108.046875 102.085938 107.335938 102.304688 C 106.625 102.527344 105.960938 102.84375 105.339844 103.253906 C 104.722656 103.667969 104.171875 104.15625 103.695312 104.726562 C 103.214844 105.296875 102.824219 105.921875 102.527344 106.601562 C 101.742188 107.996094 84.722656 137.597656 50.605469 146.296875 L 33.765625 137.519531 L 24.011719 77.472656 C 23.945312 77.023438 23.839844 76.585938 23.695312 76.152344 C 23.550781 75.722656 23.371094 75.304688 23.15625 74.90625 C 22.9375 74.507812 22.6875 74.128906 22.40625 73.773438 C 22.121094 73.417969 21.8125 73.089844 21.46875 72.789062 C 21.128906 72.484375 20.765625 72.21875 20.378906 71.980469 C 19.988281 71.742188 19.582031 71.539062 19.160156 71.375 C 18.738281 71.207031 18.300781 71.078125 17.855469 70.988281 C 17.410156 70.898438 16.960938 70.847656 16.503906 70.839844 C 15.929688 70.824219 15.359375 70.875 14.796875 70.988281 C 14.230469 71.101562 13.6875 71.273438 13.160156 71.507812 C 12.632812 71.742188 12.140625 72.03125 11.679688 72.375 C 11.214844 72.71875 10.796875 73.109375 10.421875 73.546875 C 10.046875 73.984375 9.726562 74.457031 9.457031 74.964844 C 9.183594 75.472656 8.972656 76.003906 8.820312 76.558594 C 8.671875 77.113281 8.582031 77.679688 8.554688 78.253906 C 8.527344 78.828125 8.5625 79.398438 8.664062 79.964844 L 16.550781 128.546875 L 12.160156 126.253906 C 10.992188 125.625 9.746094 125.316406 8.421875 125.324219 C 7.546875 125.332031 6.699219 125.480469 5.878906 125.769531 C 5.054688 126.058594 4.300781 126.476562 3.617188 127.019531 C 2.9375 127.5625 2.359375 128.203125 1.894531 128.941406 C 1.425781 129.679688 1.09375 130.472656 0.894531 131.320312 C 0.695312 132.167969 0.636719 133.027344 0.726562 133.894531 C 0.816406 134.765625 1.046875 135.59375 1.414062 136.382812 C 1.78125 137.175781 2.269531 137.882812 2.878906 138.511719 C 3.484375 139.136719 4.179688 139.648438 4.957031 140.042969 L 19.652344 147.710938 L 43.21875 292.90625 L 4.957031 312.859375 C 4.503906 313.09375 4.078125 313.375 3.679688 313.695312 C 3.28125 314.015625 2.921875 314.371094 2.59375 314.761719 C 2.265625 315.152344 1.976562 315.574219 1.734375 316.019531 C 1.488281 316.46875 1.289062 316.9375 1.136719 317.421875 C 0.984375 317.910156 0.878906 318.40625 0.824219 318.914062 C 0.769531 319.421875 0.765625 319.929688 0.808594 320.441406 C 0.855469 320.949219 0.949219 321.449219 1.09375 321.9375 C 1.238281 322.425781 1.425781 322.898438 1.664062 323.351562 C 1.898438 323.804688 2.175781 324.230469 2.496094 324.625 C 2.816406 325.023438 3.171875 325.386719 3.566406 325.714844 C 3.957031 326.042969 4.375 326.328125 4.824219 326.574219 C 5.273438 326.820312 5.742188 327.019531 6.226562 327.171875 C 6.714844 327.324219 7.214844 327.429688 7.722656 327.484375 C 8.230469 327.539062 8.738281 327.542969 9.246094 327.5 C 9.753906 327.453125 10.253906 327.359375 10.746094 327.21875 C 11.234375 327.074219 11.707031 326.882812 12.160156 326.648438 L 45.847656 309.09375 L 55.34375 367.652344 C 55.417969 368.101562 55.53125 368.542969 55.683594 368.976562 C 55.832031 369.410156 56.023438 369.824219 56.246094 370.222656 C 56.472656 370.621094 56.730469 370.996094 57.019531 371.351562 C 57.3125 371.703125 57.632812 372.027344 57.980469 372.324219 C 58.328125 372.621094 58.703125 372.886719 59.097656 373.117188 C 59.492188 373.347656 59.90625 373.542969 60.335938 373.699219 C 60.765625 373.859375 61.203125 373.980469 61.65625 374.058594 C 62.105469 374.140625 62.5625 374.179688 63.019531 374.179688 L 311.980469 374.179688 C 312.4375 374.179688 312.894531 374.140625 313.34375 374.058594 C 313.796875 373.980469 314.234375 373.859375 314.664062 373.699219 C 315.09375 373.542969 315.507812 373.347656 315.902344 373.117188 C 316.296875 372.886719 316.671875 372.621094 317.019531 372.324219 C 317.367188 372.027344 317.6875 371.703125 317.980469 371.351562 C 318.269531 370.996094 318.527344 370.621094 318.753906 370.222656 C 318.976562 369.824219 319.167969 369.410156 319.316406 368.976562 C 319.46875 368.542969 319.582031 368.101562 319.65625 367.652344 L 329.152344 309.09375 L 362.839844 326.648438 C 363.292969 326.882812 363.765625 327.074219 364.253906 327.21875 C 364.746094 327.359375 365.246094 327.457031 365.753906 327.5 C 366.265625 327.546875 366.773438 327.539062 367.28125 327.484375 C 367.789062 327.429688 368.285156 327.328125 368.773438 327.171875 C 369.261719 327.019531 369.730469 326.820312 370.175781 326.578125 C 370.625 326.332031 371.046875 326.046875 371.4375 325.71875 C 371.828125 325.390625 372.183594 325.027344 372.503906 324.628906 C 372.824219 324.230469 373.105469 323.804688 373.339844 323.351562 C 373.578125 322.898438 373.765625 322.429688 373.910156 321.9375 C 374.054688 321.449219 374.148438 320.949219 374.195312 320.441406 C 374.238281 319.933594 374.234375 319.421875 374.179688 318.914062 C 374.125 318.40625 374.019531 317.910156 373.867188 317.421875 C 373.714844 316.9375 373.515625 316.46875 373.269531 316.019531 C 373.023438 315.574219 372.738281 315.152344 372.410156 314.761719 C 372.082031 314.371094 371.71875 314.015625 371.320312 313.695312 C 370.921875 313.375 370.496094 313.09375 370.042969 312.859375 L 331.78125 292.90625 L 355.347656 147.710938 L 370.042969 140.042969 C 370.832031 139.644531 371.53125 139.125 372.144531 138.492188 C 372.757812 137.855469 373.246094 137.136719 373.613281 136.332031 C 373.980469 135.53125 374.203125 134.6875 374.285156 133.808594 C 374.367188 132.929688 374.296875 132.0625 374.082031 131.207031 C 373.867188 130.351562 373.519531 129.554688 373.03125 128.820312 C 372.546875 128.082031 371.953125 127.445312 371.25 126.910156 C 370.546875 126.378906 369.773438 125.972656 368.933594 125.703125 C 368.09375 125.429688 367.234375 125.304688 366.351562 125.324219 C 365.105469 125.355469 363.9375 125.664062 362.839844 126.253906 L 358.449219 128.546875 L 366.335938 79.964844 C 366.453125 79.390625 366.507812 78.8125 366.492188 78.226562 C 366.480469 77.640625 366.402344 77.0625 366.257812 76.496094 C 366.113281 75.929688 365.910156 75.382812 365.644531 74.863281 C 365.378906 74.339844 365.054688 73.855469 364.679688 73.40625 C 364.304688 72.957031 363.882812 72.554688 363.414062 72.203125 C 362.949219 71.847656 362.449219 71.550781 361.914062 71.308594 C 361.378906 71.070312 360.824219 70.890625 360.25 70.777344 C 359.675781 70.660156 359.09375 70.609375 358.511719 70.625 Z M 109.699219 123.441406 C 120.988281 138.15625 146.617188 164.246094 187.5 164.246094 C 228.382812 164.246094 254.011719 138.15625 265.300781 123.441406 C 272.617188 132.980469 285.832031 147.195312 305.523438 156.136719 L 187.5 217.671875 L 69.476562 156.136719 C 89.167969 147.195312 102.382812 132.980469 109.699219 123.441406 Z M 48.339844 162.652344 L 170.679688 226.449219 L 57.746094 285.328125 L 38.039062 163.914062 C 41.59375 163.675781 45.027344 163.257812 48.339844 162.652344 Z M 326.660156 162.652344 C 329.972656 163.257812 333.40625 163.675781 336.960938 163.914062 L 317.253906 285.328125 L 204.320312 226.449219 Z M 187.5 235.226562 L 314.625 301.515625 L 305.355469 358.628906 L 69.644531 358.628906 L 60.375 301.515625 Z M 187.5 235.226562 " fill-opacity="1" fill-rule="nonzero"/></g></svg>