<svg xmlns="http://www.w3.org/2000/svg" xmlns:xlink="http://www.w3.org/1999/xlink" width="500" zoomAndPan="magnify" viewBox="0 0 375 374.999991" height="500" preserveAspectRatio="xMidYMid meet" version="1.0"><defs><clipPath id="10094d41f6"><path d="M 0 123.28125 L 375 123.28125 L 375 375 L 0 375 Z M 0 123.28125 " clip-rule="nonzero"/></clipPath></defs><g clip-path="url(#10094d41f6)"><path fill="#ffffff" d="M 315.292969 364.074219 L 59.75 364.074219 L 21.113281 201.242188 C 28.523438 195.828125 35.832031 191.5 49.449219 191.5 C 64.9375 191.5 72.285156 197.039062 80.792969 203.457031 C 89.621094 210.113281 99.625 217.65625 118.832031 217.65625 C 121.292969 217.65625 123.617188 217.484375 125.867188 217.242188 C 124.769531 218.832031 124.039062 219.890625 123.878906 220.121094 C 119.769531 226.632812 121.34375 238.226562 129.53125 243.40625 C 129.65625 243.484375 129.777344 243.554688 129.90625 243.625 C 132.921875 245.21875 135.976562 245.914062 138.863281 245.914062 C 143.546875 245.914062 147.769531 244.074219 150.660156 241.304688 L 132.90625 293.949219 C 129.9375 302.765625 134.828125 312.40625 143.808594 315.441406 C 145.660156 316.066406 147.542969 316.363281 149.390625 316.363281 C 149.808594 316.363281 150.210938 316.300781 150.621094 316.269531 C 150.429688 319.246094 150.863281 322.21875 152.070312 324.949219 C 154.023438 329.367188 157.542969 332.628906 161.980469 334.128906 C 163.699219 334.707031 165.449219 334.984375 167.183594 334.984375 C 174.109375 334.984375 180.6875 330.542969 183.585938 323.546875 C 185.191406 324.828125 187.011719 325.859375 189.019531 326.539062 C 190.917969 327.179688 192.847656 327.484375 194.742188 327.484375 C 201.785156 327.484375 208.273438 323.253906 210.550781 316.496094 L 211.839844 312.671875 C 213.457031 313.820312 215.277344 314.761719 217.242188 315.425781 C 219.5 316.191406 221.761719 316.554688 223.921875 316.554688 C 230.492188 316.554688 236.136719 313.195312 238.042969 307.546875 L 255.34375 256.25 C 257.984375 248.421875 259.972656 240.707031 261.261719 233.324219 C 262.175781 228.074219 262.566406 222.703125 262.667969 217.296875 C 277.703125 215.8125 286.414062 209.289062 294.175781 203.441406 C 302.683594 197.035156 310.03125 191.5 325.503906 191.5 C 339.222656 191.5 346.542969 195.832031 353.925781 201.265625 Z M 369.824219 158.507812 C 366.816406 157.800781 363.796875 159.65625 363.085938 162.667969 L 356.710938 189.53125 C 349.257812 184.570312 340.011719 180.289062 325.503906 180.289062 C 306.289062 180.289062 296.277344 187.832031 287.445312 194.484375 C 280.195312 199.945312 273.796875 204.753906 262.511719 206.058594 C 262.332031 201.691406 262.0625 197.328125 261.78125 193.015625 C 261.605469 190.25 261.425781 187.492188 261.277344 184.75 C 260.933594 178.496094 261.808594 172.167969 263.871094 165.949219 L 271.296875 143.578125 C 272.273438 140.640625 270.683594 137.46875 267.75 136.492188 C 264.816406 135.515625 261.648438 137.105469 260.671875 140.042969 L 253.246094 162.414062 C 250.734375 169.972656 249.675781 177.695312 250.09375 185.363281 C 250.246094 188.140625 250.425781 190.9375 250.609375 193.742188 C 251.003906 199.804688 251.390625 205.960938 251.480469 212.027344 C 251.480469 212.046875 251.472656 212.066406 251.472656 212.085938 C 251.476562 212.113281 251.484375 212.136719 251.484375 212.160156 C 251.574219 218.773438 251.296875 225.269531 250.230469 231.398438 C 249.039062 238.222656 247.191406 245.375 244.734375 252.664062 L 227.433594 303.960938 C 227.113281 304.910156 224.285156 305.976562 220.820312 304.808594 C 219.035156 304.203125 217.511719 303.144531 216.640625 301.90625 C 216.15625 301.210938 215.9375 300.527344 216.074219 300.121094 L 232.535156 251.296875 C 233.527344 248.367188 231.953125 245.1875 229.023438 244.195312 C 226.097656 243.207031 222.917969 244.78125 221.925781 247.714844 L 205.464844 296.535156 C 205.464844 296.539062 205.464844 296.539062 205.464844 296.539062 L 199.945312 312.910156 C 199.027344 315.628906 195.734375 316.980469 192.597656 315.917969 C 191.011719 315.378906 189.722656 314.324219 188.976562 312.9375 C 188.300781 311.6875 188.160156 310.3125 188.578125 309.070312 L 209.496094 247.039062 C 210.484375 244.109375 208.914062 240.929688 205.980469 239.9375 C 203.050781 238.953125 199.878906 240.523438 198.886719 243.457031 L 173.496094 318.75 C 172.253906 322.429688 168.703125 324.570312 165.5625 323.507812 C 164.132812 323.023438 162.976562 321.925781 162.304688 320.414062 C 161.5625 318.734375 161.503906 316.777344 162.132812 314.90625 L 165.488281 304.960938 L 187.523438 239.613281 C 188.511719 236.683594 186.941406 233.503906 184.007812 232.511719 C 181.082031 231.527344 177.90625 233.097656 176.914062 236.03125 L 154.878906 301.375 C 153.882812 304.332031 150.527344 305.875 147.386719 304.820312 C 144.253906 303.761719 142.519531 300.492188 143.515625 297.53125 L 173.445312 208.785156 C 173.476562 208.6875 173.484375 208.589844 173.511719 208.492188 C 173.566406 208.296875 173.613281 208.105469 173.644531 207.90625 C 173.675781 207.730469 173.691406 207.554688 173.707031 207.378906 C 173.71875 207.199219 173.722656 207.019531 173.71875 206.839844 C 173.710938 206.652344 173.695312 206.464844 173.675781 206.28125 C 173.652344 206.109375 173.625 205.945312 173.585938 205.773438 C 173.546875 205.59375 173.496094 205.417969 173.4375 205.242188 C 173.382812 205.074219 173.320312 204.910156 173.25 204.746094 C 173.175781 204.582031 173.097656 204.425781 173.011719 204.269531 C 172.921875 204.109375 172.828125 203.957031 172.722656 203.808594 C 172.621094 203.65625 172.507812 203.511719 172.386719 203.371094 C 172.273438 203.238281 172.15625 203.109375 172.03125 202.984375 C 171.886719 202.847656 171.734375 202.71875 171.578125 202.597656 C 171.496094 202.53125 171.433594 202.457031 171.347656 202.398438 C 171.285156 202.355469 171.21875 202.332031 171.15625 202.292969 C 170.996094 202.1875 170.832031 202.101562 170.660156 202.011719 C 170.480469 201.921875 170.304688 201.835938 170.121094 201.769531 C 170.054688 201.742188 169.996094 201.703125 169.929688 201.679688 C 169.835938 201.648438 169.738281 201.640625 169.644531 201.617188 C 169.445312 201.558594 169.25 201.511719 169.050781 201.480469 C 168.878906 201.449219 168.707031 201.433594 168.539062 201.421875 C 168.347656 201.40625 168.164062 201.402344 167.976562 201.40625 C 167.796875 201.414062 167.625 201.425781 167.449219 201.449219 C 167.265625 201.472656 167.085938 201.503906 166.90625 201.542969 C 166.738281 201.582031 166.578125 201.625 166.414062 201.679688 C 166.230469 201.738281 166.054688 201.804688 165.875 201.886719 C 165.726562 201.953125 165.582031 202.023438 165.441406 202.105469 C 165.269531 202.199219 165.105469 202.300781 164.945312 202.410156 C 164.804688 202.511719 164.671875 202.617188 164.539062 202.726562 C 164.398438 202.847656 164.261719 202.96875 164.132812 203.105469 C 163.996094 203.242188 163.875 203.390625 163.753906 203.542969 C 163.691406 203.625 163.613281 203.695312 163.550781 203.78125 L 143.484375 232.523438 C 142.667969 233.816406 139.511719 235.898438 135.351562 233.824219 C 132.824219 232.050781 132.429688 227.5625 133.214844 226.300781 C 133.308594 226.167969 138.421875 218.769531 143.734375 211.164062 C 143.785156 211.089844 143.84375 211.023438 143.886719 210.945312 C 148.136719 204.867188 152.480469 198.703125 154.464844 196.050781 C 161.148438 187.121094 170.757812 178.085938 183.84375 168.429688 C 194.453125 160.597656 202.242188 149.886719 206.351562 137.496094 L 208.441406 131.394531 C 209.445312 128.464844 207.886719 125.277344 204.960938 124.277344 C 202.035156 123.277344 198.851562 124.832031 197.847656 127.757812 L 195.742188 133.910156 C 192.347656 144.140625 185.933594 152.957031 177.199219 159.40625 C 163.21875 169.722656 152.855469 179.511719 145.507812 189.328125 C 143.550781 191.941406 139.523438 197.640625 135.46875 203.441406 C 132.875 204.5 130.222656 205.308594 127.332031 205.777344 C 124.742188 206.222656 121.882812 206.445312 118.832031 206.445312 C 103.371094 206.445312 96.03125 200.910156 87.527344 194.5 C 78.695312 187.839844 68.683594 180.292969 49.449219 180.292969 C 35.054688 180.292969 25.835938 184.554688 18.332031 189.523438 L 11.960938 162.667969 C 11.246094 159.65625 8.234375 157.800781 5.21875 158.507812 C 2.210938 159.226562 0.351562 162.246094 1.066406 165.257812 L 49.878906 370.976562 C 50.476562 373.5 52.730469 375.285156 55.324219 375.285156 L 319.71875 375.285156 C 322.3125 375.285156 324.566406 373.5 325.164062 370.976562 L 373.976562 165.257812 C 374.691406 162.246094 372.832031 159.226562 369.824219 158.507812 " fill-opacity="1" fill-rule="nonzero"/></g></svg>