<svg xmlns="http://www.w3.org/2000/svg" xmlns:xlink="http://www.w3.org/1999/xlink" width="500" zoomAndPan="magnify" viewBox="0 0 375 374.999991" height="500" preserveAspectRatio="xMidYMid meet" version="1.0"><defs><clipPath id="f1aeabab40"><path d="M 0 59.0625 L 375 59.0625 L 375 374.8125 L 0 374.8125 Z M 0 59.0625 " clip-rule="nonzero"/></clipPath></defs><g clip-path="url(#f1aeabab40)"><path fill="#ffffff" d="M 9.789062 59.644531 C 9.089844 59.769531 8.410156 59.964844 7.746094 60.226562 C 7.085938 60.488281 6.457031 60.808594 5.859375 61.195312 C 5.261719 61.578125 4.710938 62.015625 4.199219 62.511719 C 3.6875 63.003906 3.230469 63.542969 2.824219 64.125 C 2.421875 64.710938 2.078125 65.328125 1.792969 65.980469 C 1.511719 66.628906 1.296875 67.304688 1.144531 67.996094 C 0.996094 68.691406 0.914062 69.394531 0.902344 70.101562 C 0.890625 70.8125 0.945312 71.515625 1.074219 72.214844 L 54.417969 365.875 C 54.527344 366.496094 54.695312 367.097656 54.910156 367.6875 C 55.128906 368.277344 55.394531 368.84375 55.710938 369.386719 C 56.027344 369.929688 56.390625 370.441406 56.796875 370.921875 C 57.203125 371.402344 57.644531 371.84375 58.128906 372.246094 C 58.609375 372.648438 59.125 373.007812 59.671875 373.320312 C 60.214844 373.632812 60.785156 373.898438 61.375 374.113281 C 61.964844 374.324219 62.570312 374.488281 63.191406 374.597656 C 63.808594 374.703125 64.433594 374.757812 65.0625 374.757812 L 309.953125 374.757812 C 310.582031 374.757812 311.207031 374.703125 311.824219 374.597656 C 312.445312 374.488281 313.050781 374.324219 313.640625 374.113281 C 314.230469 373.898438 314.800781 373.632812 315.34375 373.320312 C 315.890625 373.007812 316.402344 372.648438 316.886719 372.246094 C 317.367188 371.84375 317.8125 371.402344 318.21875 370.921875 C 318.625 370.441406 318.984375 369.929688 319.300781 369.386719 C 319.617188 368.84375 319.886719 368.277344 320.105469 367.6875 C 320.320312 367.097656 320.484375 366.496094 320.597656 365.875 L 373.941406 72.214844 C 374.066406 71.515625 374.125 70.8125 374.113281 70.101562 C 374.101562 69.394531 374.019531 68.691406 373.871094 67.996094 C 373.71875 67.304688 373.503906 66.628906 373.21875 65.980469 C 372.9375 65.328125 372.59375 64.710938 372.1875 64.125 C 371.785156 63.542969 371.328125 63.003906 370.816406 62.511719 C 370.304688 62.015625 369.75 61.578125 369.152344 61.195312 C 368.558594 60.808594 367.929688 60.488281 367.265625 60.226562 C 366.605469 59.964844 365.925781 59.769531 365.226562 59.644531 C 364.527344 59.519531 363.824219 59.460938 363.113281 59.472656 C 362.402344 59.484375 361.699219 59.566406 361.007812 59.714844 C 360.3125 59.867188 359.636719 60.082031 358.988281 60.363281 C 358.335938 60.648438 357.71875 60.992188 357.132812 61.394531 C 356.546875 61.800781 356.007812 62.257812 355.515625 62.765625 C 355.023438 63.277344 354.582031 63.832031 354.199219 64.429688 C 353.8125 65.023438 353.492188 65.652344 353.230469 66.3125 C 352.96875 66.976562 352.773438 67.652344 352.648438 68.351562 L 331.484375 184.859375 C 330.605469 184.976562 329.597656 185.058594 328.378906 185.03125 C 322.636719 184.898438 312.640625 182.667969 297.976562 170.777344 C 281.773438 157.636719 266.898438 151.589844 252.570312 151.5 C 251.613281 151.496094 250.660156 151.515625 249.710938 151.5625 C 234.5 152.3125 221.40625 158.78125 206.550781 165.75 C 191.226562 172.941406 179.042969 179.683594 166.421875 181.859375 C 153.800781 184.039062 139.957031 182.542969 118.726562 170.996094 C 86.027344 153.210938 56.558594 158.8125 39.902344 164.894531 L 22.367188 68.351562 C 22.238281 67.652344 22.046875 66.972656 21.785156 66.3125 C 21.523438 65.652344 21.203125 65.023438 20.816406 64.429688 C 20.433594 63.832031 19.992188 63.277344 19.5 62.765625 C 19.003906 62.257812 18.464844 61.800781 17.882812 61.394531 C 17.296875 60.992188 16.679688 60.648438 16.027344 60.363281 C 15.375 60.082031 14.703125 59.867188 14.007812 59.714844 C 13.316406 59.566406 12.613281 59.484375 11.902344 59.472656 C 11.191406 59.460938 10.488281 59.519531 9.789062 59.644531 Z M 254.292969 173.160156 C 262.546875 173.558594 271.359375 177.042969 284.34375 187.574219 C 301.628906 201.589844 316.421875 206.285156 327.53125 206.625 L 300.917969 353.132812 L 74.09375 353.132812 L 43.757812 186.125 C 54.386719 181.09375 78.433594 173.703125 108.382812 189.996094 C 132.617188 203.175781 152.71875 206.171875 170.101562 203.171875 C 187.484375 200.175781 201.367188 192.074219 215.746094 185.328125 C 230.589844 178.363281 241.441406 173.625 250.777344 173.164062 C 251.945312 173.109375 253.113281 173.101562 254.292969 173.160156 Z M 186.375 253.6875 C 185.71875 253.6875 185.066406 253.722656 184.414062 253.785156 C 183.761719 253.851562 183.113281 253.945312 182.472656 254.074219 C 181.828125 254.199219 181.195312 254.359375 180.566406 254.550781 C 179.941406 254.742188 179.324219 254.960938 178.71875 255.210938 C 178.113281 255.460938 177.523438 255.742188 176.945312 256.050781 C 176.367188 256.359375 175.804688 256.695312 175.261719 257.058594 C 174.714844 257.421875 174.191406 257.8125 173.683594 258.226562 C 173.179688 258.644531 172.691406 259.082031 172.230469 259.542969 C 171.765625 260.007812 171.328125 260.492188 170.910156 261 C 170.496094 261.503906 170.105469 262.03125 169.742188 262.574219 C 169.378906 263.117188 169.042969 263.679688 168.734375 264.257812 C 168.425781 264.835938 168.144531 265.425781 167.894531 266.03125 C 167.644531 266.636719 167.421875 267.25 167.234375 267.878906 C 167.042969 268.503906 166.882812 269.136719 166.753906 269.78125 C 166.628906 270.421875 166.53125 271.070312 166.46875 271.722656 C 166.402344 272.371094 166.371094 273.027344 166.371094 273.679688 C 166.371094 274.335938 166.402344 274.988281 166.46875 275.640625 C 166.53125 276.292969 166.628906 276.9375 166.753906 277.582031 C 166.882812 278.222656 167.042969 278.859375 167.230469 279.484375 C 167.421875 280.109375 167.644531 280.726562 167.894531 281.332031 C 168.144531 281.9375 168.425781 282.527344 168.734375 283.105469 C 169.042969 283.683594 169.378906 284.242188 169.742188 284.789062 C 170.105469 285.332031 170.496094 285.855469 170.910156 286.363281 C 171.328125 286.871094 171.765625 287.355469 172.230469 287.816406 C 172.691406 288.28125 173.179688 288.71875 173.683594 289.132812 C 174.191406 289.550781 174.714844 289.9375 175.261719 290.304688 C 175.804688 290.667969 176.367188 291.003906 176.945312 291.3125 C 177.523438 291.621094 178.113281 291.898438 178.71875 292.148438 C 179.324219 292.402344 179.941406 292.621094 180.566406 292.8125 C 181.195312 293 181.828125 293.160156 182.472656 293.289062 C 183.113281 293.414062 183.761719 293.511719 184.414062 293.574219 C 185.066406 293.640625 185.71875 293.671875 186.375 293.671875 C 187.03125 293.671875 187.683594 293.640625 188.335938 293.574219 C 188.988281 293.511719 189.632812 293.414062 190.277344 293.289062 C 190.917969 293.160156 191.554688 293 192.179688 292.8125 C 192.808594 292.621094 193.425781 292.402344 194.027344 292.148438 C 194.632812 291.898438 195.226562 291.621094 195.804688 291.3125 C 196.382812 291.003906 196.941406 290.667969 197.488281 290.304688 C 198.03125 289.9375 198.558594 289.550781 199.0625 289.132812 C 199.570312 288.71875 200.054688 288.28125 200.519531 287.816406 C 200.980469 287.355469 201.421875 286.871094 201.835938 286.363281 C 202.253906 285.855469 202.640625 285.332031 203.007812 284.789062 C 203.371094 284.242188 203.707031 283.683594 204.015625 283.105469 C 204.324219 282.527344 204.605469 281.9375 204.855469 281.332031 C 205.105469 280.726562 205.328125 280.109375 205.515625 279.484375 C 205.707031 278.859375 205.867188 278.222656 205.992188 277.582031 C 206.121094 276.9375 206.21875 276.292969 206.28125 275.640625 C 206.347656 274.988281 206.378906 274.335938 206.378906 273.679688 C 206.378906 273.027344 206.347656 272.371094 206.28125 271.722656 C 206.21875 271.070312 206.121094 270.421875 205.992188 269.78125 C 205.867188 269.136719 205.707031 268.503906 205.515625 267.878906 C 205.328125 267.25 205.105469 266.636719 204.855469 266.03125 C 204.605469 265.425781 204.324219 264.835938 204.015625 264.257812 C 203.707031 263.679688 203.371094 263.117188 203.007812 262.574219 C 202.640625 262.03125 202.253906 261.503906 201.835938 260.996094 C 201.421875 260.492188 200.980469 260.007812 200.519531 259.542969 C 200.054688 259.082031 199.570312 258.640625 199.0625 258.226562 C 198.558594 257.8125 198.03125 257.421875 197.488281 257.058594 C 196.941406 256.695312 196.382812 256.359375 195.804688 256.050781 C 195.226562 255.742188 194.632812 255.460938 194.03125 255.210938 C 193.425781 254.960938 192.808594 254.738281 192.179688 254.550781 C 191.554688 254.359375 190.917969 254.199219 190.277344 254.074219 C 189.632812 253.945312 188.988281 253.851562 188.335938 253.785156 C 187.683594 253.722656 187.03125 253.6875 186.375 253.6875 Z M 186.375 253.6875 " fill-opacity="1" fill-rule="nonzero"/></g></svg>