<svg xmlns="http://www.w3.org/2000/svg" xmlns:xlink="http://www.w3.org/1999/xlink" width="500" zoomAndPan="magnify" viewBox="0 0 375 374.999991" height="500" preserveAspectRatio="xMidYMid meet" version="1.0"><path fill="#1a1a1a" d="M 85.308594 375.105469 C 71.582031 375.105469 71.582031 354.246094 85.308594 354.246094 L 289.84375 354.246094 C 303.570312 354.246094 303.570312 375.105469 289.84375 375.105469 Z M 351.34375 22.992188 C 354.992188 9.792969 375.03125 15.339844 371.386719 28.53125 L 299.863281 287.085938 C 298.585938 291.695312 294.402344 294.71875 289.84375 294.714844 L 289.84375 294.746094 L 85.308594 294.746094 C 80.226562 294.746094 75.992188 291.109375 75.070312 286.292969 L 3.765625 28.53125 C 0.121094 15.339844 20.160156 9.792969 23.808594 22.992188 L 37.25 71.589844 L 62.410156 87.316406 C 75.488281 95.492188 90.621094 95.5 103.699219 87.339844 C 123.472656 74.992188 147.171875 74.992188 166.953125 87.339844 C 179.933594 95.441406 195.226562 95.441406 208.207031 87.339844 C 227.984375 74.996094 251.679688 74.996094 271.457031 87.339844 C 284.539062 95.5 299.667969 95.488281 312.746094 87.316406 L 337.902344 71.589844 Z M 45.464844 101.277344 L 93.210938 273.886719 L 281.941406 273.886719 L 329.691406 101.277344 C 317.066406 109.171875 307.847656 114.226562 292.101562 114.230469 C 264.582031 114.242188 260.542969 98.9375 239.832031 98.9375 C 219.125 98.9375 214.980469 114.269531 187.574219 114.269531 C 160.167969 114.269531 156.027344 98.9375 135.324219 98.9375 C 114.609375 98.9375 110.570312 114.242188 83.050781 114.230469 C 67.300781 114.226562 58.085938 109.171875 45.464844 101.277344 Z M 85.308594 335.390625 C 71.582031 335.390625 71.582031 314.53125 85.308594 314.53125 L 289.84375 314.53125 C 303.570312 314.53125 303.570312 335.390625 289.84375 335.390625 Z M 85.308594 335.390625 " fill-opacity="1" fill-rule="evenodd"/></svg>