<svg xmlns="http://www.w3.org/2000/svg" xmlns:xlink="http://www.w3.org/1999/xlink" width="500" zoomAndPan="magnify" viewBox="0 0 375 374.999991" height="500" preserveAspectRatio="xMidYMid meet" version="1.0"><defs><clipPath id="cc382a0368"><path d="M 3 54 L 372 54 L 372 374.71875 L 3 374.71875 Z M 3 54 " clip-rule="nonzero"/></clipPath></defs><g clip-path="url(#cc382a0368)"><path fill="#1a1a1a" d="M 85.300781 374.589844 C 71.570312 374.589844 71.570312 353.753906 85.300781 353.753906 L 289.851562 353.753906 C 303.582031 353.753906 303.582031 374.589844 289.851562 374.589844 Z M 351.359375 62.515625 C 355.007812 49.332031 375.050781 54.871094 371.402344 68.046875 L 299.871094 326.335938 C 298.597656 330.941406 294.410156 333.960938 289.851562 333.960938 L 289.851562 333.988281 L 85.300781 333.988281 C 80.214844 333.988281 75.984375 330.355469 75.058594 325.546875 L 3.746094 68.046875 C 0.101562 54.871094 20.140625 49.332031 23.789062 62.515625 L 37.234375 111.0625 L 62.394531 126.773438 C 75.472656 134.941406 90.605469 134.949219 103.683594 126.796875 C 123.464844 114.460938 147.164062 114.460938 166.941406 126.796875 C 179.925781 134.890625 195.21875 134.890625 208.199219 126.796875 C 227.976562 114.464844 251.679688 114.464844 271.460938 126.796875 C 284.539062 134.949219 299.671875 134.9375 312.75 126.773438 L 337.910156 111.0625 Z M 45.453125 140.722656 L 93.203125 313.152344 L 281.949219 313.152344 L 329.703125 140.722656 C 317.078125 148.605469 307.859375 153.65625 292.109375 153.660156 C 264.585938 153.671875 260.550781 138.382812 239.835938 138.382812 C 219.128906 138.382812 214.984375 153.699219 187.574219 153.699219 C 160.164062 153.699219 156.027344 138.382812 135.316406 138.382812 C 114.601562 138.382812 110.5625 153.671875 83.039062 153.660156 C 67.292969 153.65625 58.074219 148.605469 45.453125 140.722656 Z M 45.453125 140.722656 " fill-opacity="1" fill-rule="evenodd"/></g></svg>