<svg xmlns="http://www.w3.org/2000/svg" xmlns:xlink="http://www.w3.org/1999/xlink" width="500" zoomAndPan="magnify" viewBox="0 0 375 374.999991" height="500" preserveAspectRatio="xMidYMid meet" version="1.0"><defs><clipPath id="fba3cf62d2"><path d="M 0 57.1875 L 375 57.1875 L 375 375 L 0 375 Z M 0 57.1875 " clip-rule="nonzero"/></clipPath></defs><g clip-path="url(#fba3cf62d2)"><path fill="#ffffff" d="M 365.894531 57.136719 C 365.410156 57.148438 364.929688 57.207031 364.457031 57.304688 C 363.980469 57.402344 363.519531 57.542969 363.070312 57.722656 C 362.621094 57.902344 362.191406 58.125 361.78125 58.382812 C 361.371094 58.640625 360.984375 58.929688 360.628906 59.257812 C 360.269531 59.585938 359.941406 59.941406 359.648438 60.324219 C 359.355469 60.710938 359.09375 61.117188 358.875 61.546875 C 358.652344 61.980469 358.46875 62.425781 358.328125 62.890625 C 358.1875 63.351562 358.085938 63.824219 358.027344 64.308594 L 345.96875 138.65625 C 298.984375 136.429688 275.683594 94.4375 275.605469 94.289062 C 275.59375 94.273438 275.582031 94.257812 275.570312 94.242188 C 275.550781 94.203125 275.53125 94.167969 275.507812 94.128906 C 275.402344 93.945312 275.292969 93.765625 275.175781 93.589844 C 274.796875 93.019531 274.355469 92.5 273.847656 92.042969 C 273.339844 91.582031 272.785156 91.191406 272.179688 90.871094 C 271.574219 90.554688 270.9375 90.3125 270.273438 90.15625 C 269.605469 89.996094 268.933594 89.921875 268.246094 89.933594 C 267.46875 89.945312 266.710938 90.070312 265.96875 90.300781 C 265.222656 90.53125 264.527344 90.863281 263.882812 91.292969 C 263.234375 91.726562 262.660156 92.238281 262.160156 92.835938 C 261.660156 93.429688 261.253906 94.085938 260.9375 94.796875 C 259.980469 96.503906 235.777344 138.863281 187.09375 138.863281 C 138.390625 138.863281 114.1875 96.457031 113.246094 94.78125 C 112.945312 94.105469 112.5625 93.480469 112.089844 92.910156 C 111.621094 92.339844 111.082031 91.839844 110.476562 91.417969 C 109.871094 90.992188 109.21875 90.65625 108.519531 90.410156 C 107.824219 90.164062 107.105469 90.015625 106.367188 89.964844 C 106.097656 89.941406 105.828125 89.929688 105.558594 89.933594 C 104.78125 89.945312 104.019531 90.070312 103.277344 90.300781 C 102.535156 90.53125 101.839844 90.863281 101.191406 91.292969 C 100.542969 91.726562 99.96875 92.238281 99.46875 92.835938 C 98.96875 93.429688 98.5625 94.085938 98.25 94.796875 C 97.316406 96.457031 74.324219 136.46875 28.214844 138.65625 L 16.15625 64.308594 C 16.089844 63.835938 15.976562 63.375 15.828125 62.921875 C 15.675781 62.472656 15.488281 62.039062 15.261719 61.617188 C 15.035156 61.199219 14.773438 60.804688 14.476562 60.433594 C 14.183594 60.058594 13.855469 59.714844 13.5 59.402344 C 13.144531 59.085938 12.761719 58.804688 12.355469 58.554688 C 11.953125 58.308594 11.527344 58.09375 11.085938 57.921875 C 10.640625 57.746094 10.1875 57.613281 9.722656 57.519531 C 9.253906 57.425781 8.785156 57.371094 8.308594 57.359375 C 7.707031 57.347656 7.113281 57.398438 6.519531 57.515625 C 5.929688 57.636719 5.359375 57.816406 4.8125 58.0625 C 4.261719 58.308594 3.746094 58.609375 3.261719 58.96875 C 2.78125 59.328125 2.34375 59.738281 1.949219 60.195312 C 1.558594 60.652344 1.21875 61.148438 0.9375 61.679688 C 0.65625 62.210938 0.433594 62.765625 0.277344 63.347656 C 0.117188 63.929688 0.0234375 64.519531 -0.00390625 65.121094 C -0.03125 65.722656 0.0078125 66.320312 0.109375 66.914062 L 48.917969 368.066406 C 48.996094 368.539062 49.113281 369.003906 49.269531 369.457031 C 49.429688 369.90625 49.625 370.34375 49.859375 370.761719 C 50.097656 371.175781 50.367188 371.570312 50.671875 371.941406 C 50.976562 372.308594 51.308594 372.652344 51.675781 372.960938 C 52.039062 373.273438 52.429688 373.546875 52.839844 373.789062 C 53.253906 374.03125 53.6875 374.234375 54.136719 374.402344 C 54.585938 374.566406 55.042969 374.691406 55.515625 374.777344 C 55.988281 374.859375 56.460938 374.902344 56.941406 374.902344 L 317.246094 374.902344 C 317.722656 374.902344 318.199219 374.859375 318.671875 374.777344 C 319.140625 374.691406 319.601562 374.566406 320.050781 374.402344 C 320.5 374.234375 320.933594 374.03125 321.34375 373.789062 C 321.757812 373.546875 322.148438 373.273438 322.511719 372.960938 C 322.878906 372.652344 323.210938 372.308594 323.515625 371.941406 C 323.820312 371.570312 324.089844 371.175781 324.324219 370.761719 C 324.5625 370.34375 324.757812 369.90625 324.914062 369.457031 C 325.074219 369.003906 325.191406 368.539062 325.269531 368.066406 L 374.074219 66.914062 C 374.199219 66.3125 374.253906 65.707031 374.238281 65.09375 C 374.226562 64.480469 374.144531 63.878906 373.996094 63.285156 C 373.84375 62.6875 373.628906 62.117188 373.351562 61.574219 C 373.074219 61.027344 372.738281 60.519531 372.34375 60.046875 C 371.949219 59.578125 371.511719 59.160156 371.023438 58.789062 C 370.535156 58.417969 370.011719 58.105469 369.453125 57.855469 C 368.894531 57.601562 368.3125 57.414062 367.710938 57.292969 C 367.113281 57.175781 366.503906 57.121094 365.894531 57.136719 Z M 105.75 112.425781 C 117.550781 127.828125 144.347656 155.144531 187.09375 155.144531 C 229.839844 155.144531 256.636719 127.828125 268.4375 112.425781 C 279.628906 127.03125 304.367188 152.195312 343.363281 154.792969 L 310.316406 358.625 L 63.867188 358.625 L 30.820312 154.792969 C 69.820312 152.195312 94.554688 127.03125 105.75 112.425781 Z M 154.554688 228.394531 C 145.566406 228.394531 138.285156 235.679688 138.285156 244.675781 C 138.285156 253.667969 145.566406 260.953125 154.554688 260.953125 C 163.542969 260.953125 170.824219 253.667969 170.824219 244.675781 C 170.824219 235.679688 163.542969 228.394531 154.554688 228.394531 Z M 219.632812 228.394531 C 210.644531 228.394531 203.363281 235.679688 203.363281 244.675781 C 203.363281 253.667969 210.644531 260.953125 219.632812 260.953125 C 228.621094 260.953125 235.898438 253.667969 235.898438 244.675781 C 235.898438 235.679688 228.621094 228.394531 219.632812 228.394531 Z M 219.632812 228.394531 " fill-opacity="1" fill-rule="nonzero"/></g></svg>