<svg xmlns="http://www.w3.org/2000/svg" xmlns:xlink="http://www.w3.org/1999/xlink" width="500" zoomAndPan="magnify" viewBox="0 0 375 374.999991" height="500" preserveAspectRatio="xMidYMid meet" version="1.0"><path fill="#ffffff" d="M 315.445312 363.777344 L 59.597656 363.777344 L 20.859375 200.699219 C 27.835938 195.5625 35.277344 191.1875 48.882812 191.1875 C 64.316406 191.1875 71.652344 196.71875 80.140625 203.128906 C 88.96875 209.792969 98.972656 217.34375 118.195312 217.34375 C 137.414062 217.34375 147.421875 209.789062 156.25 203.128906 C 164.738281 196.71875 172.074219 191.1875 187.507812 191.1875 C 202.96875 191.1875 210.308594 196.722656 218.808594 203.136719 C 227.636719 209.796875 237.644531 217.34375 256.859375 217.34375 C 276.050781 217.34375 286.050781 209.796875 294.875 203.140625 C 303.371094 196.726562 310.707031 191.1875 326.171875 191.1875 C 339.667969 191.1875 347.144531 195.566406 354.183594 200.703125 Z M 370.039062 158.199219 C 367.027344 157.488281 364.011719 159.34375 363.292969 162.355469 L 356.96875 188.980469 C 349.632812 184.140625 340.503906 179.976562 326.171875 179.976562 C 306.953125 179.976562 296.949219 187.527344 288.121094 194.191406 C 279.628906 200.597656 272.296875 206.132812 256.859375 206.132812 C 241.398438 206.132812 234.058594 200.597656 225.558594 194.183594 C 216.730469 187.523438 206.722656 179.976562 187.507812 179.976562 C 168.316406 179.976562 158.320312 187.523438 149.496094 194.179688 C 141 200.59375 133.660156 206.132812 118.195312 206.132812 C 102.730469 206.132812 95.390625 200.59375 86.894531 194.179688 C 78.074219 187.523438 68.074219 179.976562 48.882812 179.976562 C 34.472656 179.976562 25.363281 184.125 18.070312 188.960938 L 11.75 162.355469 C 11.035156 159.34375 8.019531 157.488281 5 158.199219 C 1.988281 158.914062 0.128906 161.933594 0.84375 164.945312 L 9.074219 199.589844 C 9.101562 199.71875 9.128906 199.847656 9.164062 199.972656 L 49.714844 370.679688 C 50.3125 373.207031 52.570312 374.988281 55.167969 374.988281 L 319.878906 374.988281 C 322.472656 374.988281 324.730469 373.207031 325.332031 370.679688 L 374.199219 164.945312 C 374.914062 161.933594 373.054688 158.914062 370.039062 158.199219 " fill-opacity="1" fill-rule="nonzero"/></svg>