<svg xmlns="http://www.w3.org/2000/svg" xmlns:xlink="http://www.w3.org/1999/xlink" width="500" zoomAndPan="magnify" viewBox="0 0 375 374.999991" height="500" preserveAspectRatio="xMidYMid meet" version="1.0"><path fill="#ffffff" d="M 310.007812 300.570312 C 368.628906 239.613281 368.644531 135.386719 310.003906 74.429688 L 372.378906 12.058594 C 372.675781 11.746094 372.941406 11.40625 373.175781 11.042969 C 373.410156 10.679688 373.605469 10.296875 373.761719 9.894531 C 373.921875 9.492188 374.042969 9.078125 374.121094 8.65625 C 374.199219 8.230469 374.234375 7.800781 374.230469 7.371094 C 374.226562 6.9375 374.179688 6.511719 374.089844 6.085938 C 374.003906 5.664062 373.875 5.253906 373.707031 4.855469 C 373.542969 4.457031 373.335938 4.078125 373.097656 3.71875 C 372.855469 3.359375 372.582031 3.027344 372.277344 2.722656 C 371.96875 2.417969 371.636719 2.144531 371.28125 1.902344 C 370.921875 1.664062 370.542969 1.457031 370.144531 1.289062 C 369.746094 1.125 369.335938 0.996094 368.914062 0.90625 C 368.488281 0.820312 368.0625 0.773438 367.628906 0.769531 C 367.199219 0.765625 366.769531 0.800781 366.34375 0.878906 C 365.917969 0.957031 365.503906 1.078125 365.105469 1.234375 C 364.703125 1.394531 364.320312 1.589844 363.957031 1.824219 C 363.589844 2.058594 363.253906 2.324219 362.941406 2.621094 L 300.570312 64.992188 C 239.609375 6.371094 135.386719 6.351562 74.429688 64.996094 L 12.058594 2.621094 C 11.746094 2.316406 11.410156 2.046875 11.046875 1.804688 C 10.679688 1.566406 10.296875 1.367188 9.894531 1.203125 C 9.492188 1.039062 9.074219 0.914062 8.648438 0.832031 C 8.21875 0.75 7.789062 0.710938 7.351562 0.710938 C 6.917969 0.714844 6.484375 0.757812 6.058594 0.84375 C 5.632812 0.929688 5.21875 1.058594 4.816406 1.226562 C 4.414062 1.390625 4.03125 1.597656 3.667969 1.839844 C 3.308594 2.082031 2.972656 2.355469 2.664062 2.664062 C 2.355469 2.972656 2.082031 3.308594 1.839844 3.667969 C 1.597656 4.03125 1.390625 4.414062 1.226562 4.816406 C 1.058594 5.21875 0.929688 5.632812 0.84375 6.058594 C 0.757812 6.484375 0.714844 6.917969 0.710938 7.351562 C 0.710938 7.789062 0.75 8.21875 0.832031 8.648438 C 0.914062 9.074219 1.039062 9.492188 1.203125 9.894531 C 1.367188 10.296875 1.566406 10.679688 1.804688 11.046875 C 2.046875 11.410156 2.316406 11.746094 2.621094 12.058594 L 64.992188 74.429688 C 6.367188 135.394531 6.355469 239.609375 64.996094 300.570312 L 2.621094 362.941406 C 2.324219 363.253906 2.058594 363.59375 1.824219 363.957031 C 1.59375 364.320312 1.394531 364.703125 1.238281 365.105469 C 1.078125 365.507812 0.960938 365.917969 0.882812 366.34375 C 0.804688 366.769531 0.765625 367.199219 0.773438 367.628906 C 0.777344 368.0625 0.824219 368.488281 0.910156 368.910156 C 1 369.335938 1.125 369.746094 1.292969 370.144531 C 1.460938 370.542969 1.664062 370.921875 1.90625 371.277344 C 2.148438 371.636719 2.421875 371.96875 2.726562 372.273438 C 3.03125 372.578125 3.363281 372.851562 3.722656 373.09375 C 4.082031 373.335938 4.460938 373.539062 4.855469 373.707031 C 5.253906 373.875 5.664062 374 6.089844 374.089844 C 6.511719 374.175781 6.9375 374.222656 7.371094 374.226562 C 7.804688 374.234375 8.230469 374.195312 8.65625 374.117188 C 9.082031 374.039062 9.496094 373.921875 9.894531 373.761719 C 10.296875 373.605469 10.679688 373.40625 11.042969 373.175781 C 11.40625 372.941406 11.746094 372.675781 12.058594 372.378906 L 74.429688 310.007812 C 135.390625 368.632812 239.613281 368.644531 300.570312 310.003906 L 362.941406 372.378906 C 363.253906 372.683594 363.589844 372.957031 363.953125 373.195312 C 364.320312 373.433594 364.703125 373.636719 365.105469 373.800781 C 365.507812 373.964844 365.925781 374.085938 366.351562 374.167969 C 366.78125 374.25 367.210938 374.292969 367.648438 374.289062 C 368.082031 374.289062 368.515625 374.242188 368.941406 374.15625 C 369.367188 374.070312 369.78125 373.945312 370.183594 373.777344 C 370.585938 373.609375 370.96875 373.402344 371.332031 373.160156 C 371.691406 372.917969 372.027344 372.644531 372.335938 372.335938 C 372.644531 372.027344 372.917969 371.691406 373.160156 371.332031 C 373.402344 370.96875 373.609375 370.585938 373.777344 370.183594 C 373.945312 369.78125 374.070312 369.367188 374.15625 368.941406 C 374.242188 368.515625 374.289062 368.082031 374.289062 367.648438 C 374.292969 367.210938 374.25 366.78125 374.167969 366.351562 C 374.085938 365.925781 373.964844 365.507812 373.800781 365.105469 C 373.636719 364.703125 373.433594 364.320312 373.195312 363.953125 C 372.957031 363.589844 372.683594 363.253906 372.378906 362.941406 Z M 187.5 34.03125 C 192.246094 34.027344 196.984375 34.242188 201.710938 34.683594 C 206.4375 35.121094 211.132812 35.777344 215.800781 36.652344 C 220.464844 37.527344 225.078125 38.617188 229.644531 39.921875 C 234.207031 41.226562 238.703125 42.742188 243.125 44.464844 C 247.546875 46.191406 251.878906 48.117188 256.125 50.242188 C 260.367188 52.371094 264.503906 54.691406 268.53125 57.203125 C 272.558594 59.71875 276.460938 62.410156 280.234375 65.289062 C 284.011719 68.164062 287.648438 71.210938 291.140625 74.425781 L 187.5 178.066406 L 83.859375 74.425781 C 87.351562 71.210938 90.988281 68.164062 94.765625 65.289062 C 98.539062 62.410156 102.441406 59.71875 106.46875 57.203125 C 110.496094 54.691406 114.632812 52.371094 118.875 50.242188 C 123.121094 48.117188 127.453125 46.191406 131.875 44.464844 C 136.296875 42.742188 140.792969 41.226562 145.355469 39.921875 C 149.921875 38.617188 154.535156 37.527344 159.199219 36.652344 C 163.867188 35.777344 168.5625 35.121094 173.289062 34.683594 C 178.015625 34.242188 182.753906 34.027344 187.5 34.03125 Z M 74.425781 291.140625 C 21.023438 235.535156 21.027344 139.453125 74.425781 83.859375 L 178.066406 187.5 Z M 187.5 340.96875 C 182.753906 340.972656 178.015625 340.753906 173.289062 340.316406 C 168.5625 339.878906 163.867188 339.222656 159.199219 338.347656 C 154.535156 337.472656 149.921875 336.382812 145.355469 335.078125 C 140.792969 333.773438 136.296875 332.257812 131.875 330.535156 C 127.453125 328.808594 123.121094 326.882812 118.875 324.757812 C 114.632812 322.628906 110.496094 320.308594 106.46875 317.796875 C 102.441406 315.28125 98.539062 312.589844 94.765625 309.710938 C 90.988281 306.835938 87.351562 303.789062 83.859375 300.574219 L 187.5 196.933594 L 291.140625 300.574219 C 287.648438 303.789062 284.011719 306.835938 280.234375 309.710938 C 276.460938 312.589844 272.558594 315.28125 268.53125 317.796875 C 264.503906 320.308594 260.367188 322.628906 256.125 324.757812 C 251.878906 326.882812 247.546875 328.808594 243.125 330.535156 C 238.703125 332.257812 234.207031 333.773438 229.644531 335.078125 C 225.078125 336.382812 220.464844 337.472656 215.800781 338.347656 C 211.132812 339.222656 206.4375 339.878906 201.710938 340.316406 C 196.984375 340.753906 192.246094 340.972656 187.5 340.96875 Z M 196.933594 187.5 L 300.574219 83.859375 C 302.179688 85.605469 303.746094 87.390625 305.265625 89.207031 C 306.789062 91.027344 308.269531 92.878906 309.703125 94.769531 C 311.140625 96.65625 312.53125 98.578125 313.878906 100.527344 C 315.226562 102.480469 316.527344 104.464844 317.78125 106.476562 C 319.035156 108.488281 320.246094 110.53125 321.40625 112.597656 C 322.566406 114.667969 323.675781 116.761719 324.738281 118.882812 C 325.800781 121.003906 326.8125 123.148438 327.777344 125.316406 C 328.742188 127.484375 329.652344 129.671875 330.515625 131.882812 C 331.375 134.09375 332.183594 136.320312 332.941406 138.570312 C 333.699219 140.816406 334.40625 143.082031 335.058594 145.363281 C 335.710938 147.640625 336.3125 149.9375 336.855469 152.246094 C 337.402344 154.554688 337.894531 156.875 338.332031 159.203125 C 338.769531 161.535156 339.15625 163.875 339.484375 166.226562 C 339.8125 168.574219 340.089844 170.929688 340.308594 173.289062 C 340.527344 175.652344 340.695312 178.019531 340.804688 180.386719 C 340.914062 182.757812 340.96875 185.128906 340.96875 187.5 C 340.96875 189.871094 340.914062 192.242188 340.804688 194.613281 C 340.695312 196.980469 340.527344 199.347656 340.308594 201.710938 C 340.089844 204.070312 339.8125 206.425781 339.484375 208.773438 C 339.15625 211.125 338.769531 213.464844 338.332031 215.796875 C 337.894531 218.125 337.402344 220.445312 336.855469 222.753906 C 336.3125 225.0625 335.710938 227.355469 335.058594 229.636719 C 334.40625 231.917969 333.699219 234.183594 332.941406 236.429688 C 332.183594 238.679688 331.375 240.90625 330.515625 243.117188 C 329.652344 245.328125 328.742188 247.515625 327.777344 249.683594 C 326.8125 251.851562 325.800781 253.996094 324.738281 256.117188 C 323.675781 258.238281 322.566406 260.332031 321.40625 262.398438 C 320.246094 264.46875 319.035156 266.511719 317.78125 268.523438 C 316.527344 270.535156 315.226562 272.519531 313.878906 274.472656 C 312.53125 276.421875 311.140625 278.34375 309.703125 280.230469 C 308.269531 282.121094 306.789062 283.972656 305.265625 285.792969 C 303.746094 287.609375 302.179688 289.394531 300.574219 291.140625 Z M 196.933594 187.5 " fill-opacity="1" fill-rule="nonzero"/></svg>