<svg xmlns="http://www.w3.org/2000/svg" xmlns:xlink="http://www.w3.org/1999/xlink" width="500" zoomAndPan="magnify" viewBox="0 0 375 374.999991" height="500" preserveAspectRatio="xMidYMid meet" version="1.0"><defs><clipPath id="499bb53d39"><path d="M 30.007812 0 L 344.824219 0 L 344.824219 375 L 30.007812 375 Z M 30.007812 0 " clip-rule="nonzero"/></clipPath></defs><g clip-path="url(#499bb53d39)"><path fill="#ffffff" d="M 331.886719 368.527344 C 331.886719 372.101562 328.992188 375 325.417969 375 L 49.414062 375 C 45.84375 375 42.945312 372.101562 42.945312 368.527344 C 42.945312 364.953125 45.84375 362.054688 49.414062 362.054688 L 325.417969 362.054688 C 328.992188 362.054688 331.886719 364.953125 331.886719 368.527344 Z M 331.886719 338.324219 C 331.886719 341.898438 328.992188 344.796875 325.417969 344.796875 L 49.414062 344.796875 C 45.84375 344.796875 42.945312 341.898438 42.945312 338.324219 C 42.945312 334.75 45.84375 331.851562 49.414062 331.851562 L 325.417969 331.851562 C 328.992188 331.851562 331.886719 334.75 331.886719 338.324219 Z M 166.273438 223.921875 C 166.003906 223.480469 165.871094 223.027344 165.871094 222.554688 L 165.871094 101.410156 C 165.871094 98.78125 166.558594 96.941406 167.941406 95.898438 C 169.324219 94.855469 170.789062 94.332031 172.339844 94.332031 L 231.164062 94.332031 C 231.636719 94.332031 232.09375 94.464844 232.527344 94.734375 C 232.96875 95.007812 233.355469 95.441406 233.691406 96.050781 C 234.027344 96.65625 234.265625 97.449219 234.398438 98.425781 C 234.535156 99.402344 234.601562 100.535156 234.601562 101.8125 C 234.601562 103.097656 234.535156 104.207031 234.398438 105.152344 C 234.265625 106.09375 234.027344 106.851562 233.691406 107.425781 C 233.355469 108 232.96875 108.421875 232.527344 108.691406 C 232.09375 108.960938 231.636719 109.09375 231.164062 109.09375 L 183.253906 109.09375 L 183.253906 153.589844 L 228.535156 153.589844 C 229.007812 153.589844 229.464844 153.707031 229.902344 153.945312 C 230.339844 154.179688 230.726562 154.566406 231.066406 155.105469 C 231.398438 155.644531 231.636719 156.371094 231.769531 157.28125 C 231.90625 158.191406 231.972656 159.351562 231.972656 160.769531 C 231.972656 162.050781 231.90625 163.148438 231.769531 164.058594 C 231.636719 164.96875 231.398438 165.707031 231.066406 166.28125 C 230.726562 166.851562 230.339844 167.292969 229.902344 167.59375 C 229.464844 167.898438 229.007812 168.050781 228.535156 168.050781 L 183.253906 168.050781 L 183.253906 222.554688 C 183.253906 223.027344 183.121094 223.480469 182.851562 223.921875 C 182.582031 224.359375 182.109375 224.695312 181.4375 224.933594 C 180.761719 225.167969 179.886719 225.371094 178.808594 225.539062 C 177.730469 225.707031 176.316406 225.792969 174.5625 225.792969 C 172.945312 225.792969 171.566406 225.707031 170.417969 225.539062 C 169.273438 225.371094 168.363281 225.167969 167.691406 224.933594 C 167.015625 224.695312 166.542969 224.359375 166.273438 223.921875 Z M 187.417969 12.945312 C 267.078125 12.945312 331.882812 77.785156 331.882812 157.484375 C 331.882812 237.183594 267.078125 302.023438 187.417969 302.023438 C 107.757812 302.023438 42.949219 237.183594 42.949219 157.484375 C 42.949219 77.785156 107.757812 12.945312 187.417969 12.945312 Z M 187.417969 314.96875 C 274.210938 314.96875 344.824219 244.320312 344.824219 157.484375 C 344.824219 70.648438 274.210938 0 187.417969 0 C 100.621094 0 30.007812 70.648438 30.007812 157.484375 C 30.007812 244.320312 100.621094 314.96875 187.417969 314.96875 " fill-opacity="1" fill-rule="nonzero"/></g></svg>