<svg xmlns="http://www.w3.org/2000/svg" xmlns:xlink="http://www.w3.org/1999/xlink" width="500" zoomAndPan="magnify" viewBox="0 0 375 374.999991" height="500" preserveAspectRatio="xMidYMid meet" version="1.0"><defs><clipPath id="496d86b615"><path d="M 0 0 L 374.984375 0 L 374.984375 374.984375 L 0 374.984375 Z M 0 0 " clip-rule="nonzero"/></clipPath></defs><g clip-path="url(#496d86b615)"><path fill="#ffffff" d="M 194.15625 186.75 L 175.496094 186.75 L 175.496094 124.265625 C 199.976562 124.109375 227.890625 120.890625 228.707031 154.484375 C 229.382812 174.105469 213.96875 187.921875 194.15625 186.75 Z M 196.320312 107.171875 L 162.972656 107.171875 C 158.085938 107.300781 154.585938 110.410156 154.785156 116.078125 L 154.785156 259.828125 C 154.820312 262.632812 157.609375 262.960938 160.144531 263.378906 C 162.621094 263.777344 167.660156 263.78125 170.136719 263.378906 C 172.667969 262.941406 175.386719 262.585938 175.496094 259.828125 L 175.496094 203.726562 L 193.191406 203.726562 C 224.855469 205 251.339844 185.492188 250.5 152.796875 C 251.335938 121.554688 224.460938 105.839844 196.320312 107.171875 Z M 187.492188 359.574219 C 92.605469 359.574219 15.414062 282.375 15.414062 187.492188 C 15.414062 92.601562 92.605469 15.410156 187.492188 15.410156 C 282.378906 15.410156 359.574219 92.601562 359.574219 187.492188 C 359.574219 282.375 282.378906 359.574219 187.492188 359.574219 Z M 187.492188 0 C 84.105469 0 0 84.105469 0 187.492188 C 0 290.875 84.105469 374.984375 187.492188 374.984375 C 290.875 374.984375 374.988281 290.875 374.988281 187.492188 C 374.988281 84.105469 290.875 0 187.492188 0 " fill-opacity="1" fill-rule="nonzero"/></g></svg>