<svg xmlns="http://www.w3.org/2000/svg" xmlns:xlink="http://www.w3.org/1999/xlink" width="500" zoomAndPan="magnify" viewBox="0 0 375 374.999991" height="500" preserveAspectRatio="xMidYMid meet" version="1.0"><defs><clipPath id="29cf34984f"><path d="M 16.207031 0 L 358.875 0 L 358.875 375 L 16.207031 375 Z M 16.207031 0 " clip-rule="nonzero"/></clipPath></defs><g clip-path="url(#29cf34984f)"><path fill="#ffffff" d="M 344.792969 367.976562 C 344.792969 371.867188 341.644531 375.019531 337.753906 375.019531 L 37.332031 375.019531 C 33.441406 375.019531 30.289062 371.867188 30.289062 367.976562 C 30.289062 364.089844 33.441406 360.9375 37.332031 360.9375 L 337.753906 360.9375 C 341.644531 360.9375 344.792969 364.089844 344.792969 367.976562 Z M 176.578125 118.214844 L 194.070312 118.214844 C 197.296875 118.214844 200.617188 118.472656 204.027344 118.988281 C 207.4375 119.5 210.738281 120.710938 213.925781 122.617188 C 217.117188 124.523438 219.792969 127.417969 221.957031 131.304688 C 224.121094 135.191406 225.203125 140.03125 225.203125 145.824219 C 225.203125 150.074219 224.542969 154.015625 223.222656 157.648438 C 221.902344 161.277344 219.960938 164.394531 217.394531 166.996094 C 214.828125 169.601562 211.652344 171.632812 207.878906 173.101562 C 204.101562 174.566406 199.347656 175.300781 193.628906 175.300781 L 176.578125 175.300781 Z M 159.632812 244.648438 C 160.367188 244.90625 161.339844 245.125 162.550781 245.308594 C 163.761719 245.492188 165.28125 245.582031 167.117188 245.582031 C 168.949219 245.582031 170.46875 245.492188 171.679688 245.308594 C 172.890625 245.125 173.84375 244.90625 174.542969 244.648438 C 175.238281 244.390625 175.75 244.042969 176.082031 243.601562 C 176.410156 243.164062 176.578125 242.648438 176.578125 242.0625 L 176.578125 190.808594 L 192.75 190.808594 C 201.550781 190.808594 209.121094 189.707031 215.46875 187.507812 C 221.8125 185.308594 227.167969 182.195312 231.53125 178.160156 C 235.894531 174.125 239.25 169.25 241.597656 163.53125 C 243.945312 157.8125 245.117188 151.394531 245.117188 144.285156 C 245.117188 138.929688 244.367188 134.035156 242.863281 129.601562 C 241.359375 125.164062 239.214844 121.261719 236.425781 117.886719 C 233.636719 114.515625 230.246094 111.671875 226.25 109.363281 C 222.253906 107.054688 218.328125 105.476562 214.476562 104.632812 C 210.625 103.789062 207.289062 103.242188 204.46875 102.984375 C 201.640625 102.726562 198.691406 102.597656 195.609375 102.597656 L 165.136719 102.597656 C 163.226562 102.597656 161.503906 103.222656 159.964844 104.46875 C 158.421875 105.714844 157.652344 107.804688 157.652344 110.738281 L 157.652344 242.0625 C 157.652344 242.648438 157.800781 243.164062 158.09375 243.601562 C 158.386719 244.042969 158.902344 244.390625 159.632812 244.648438 Z M 187.542969 14.082031 C 274.253906 14.082031 344.792969 84.601562 344.792969 171.285156 C 344.792969 257.972656 274.253906 328.496094 187.542969 328.496094 C 100.835938 328.496094 30.289062 257.972656 30.289062 171.285156 C 30.289062 84.601562 100.835938 14.082031 187.542969 14.082031 Z M 187.542969 342.578125 C 282.015625 342.578125 358.875 265.734375 358.875 171.285156 C 358.875 76.835938 282.015625 0 187.542969 0 C 93.066406 0 16.207031 76.835938 16.207031 171.285156 C 16.207031 265.734375 93.066406 342.578125 187.542969 342.578125 " fill-opacity="1" fill-rule="nonzero"/></g></svg>