<svg xmlns="http://www.w3.org/2000/svg" xmlns:xlink="http://www.w3.org/1999/xlink" width="500" zoomAndPan="magnify" viewBox="0 0 375 374.999991" height="500" preserveAspectRatio="xMidYMid meet" version="1.0"><defs><clipPath id="375493fad7"><path d="M 16.207031 0 L 358.875 0 L 358.875 375 L 16.207031 375 Z M 16.207031 0 " clip-rule="nonzero"/></clipPath></defs><g clip-path="url(#375493fad7)"><path fill="#ffffff" d="M 344.792969 367.976562 C 344.792969 371.867188 341.640625 375.019531 337.75 375.019531 L 37.328125 375.019531 C 33.441406 375.019531 30.289062 371.867188 30.289062 367.976562 C 30.289062 364.089844 33.441406 360.9375 37.328125 360.9375 L 337.75 360.9375 C 341.640625 360.9375 344.792969 364.089844 344.792969 367.976562 Z M 164.527344 243.542969 C 164.234375 243.066406 164.089844 242.570312 164.089844 242.058594 L 164.089844 110.292969 C 164.089844 107.433594 164.839844 105.4375 166.34375 104.296875 C 167.847656 103.164062 169.441406 102.59375 171.128906 102.59375 L 235.160156 102.59375 C 235.671875 102.59375 236.167969 102.742188 236.644531 103.035156 C 237.121094 103.328125 237.542969 103.804688 237.910156 104.464844 C 238.277344 105.125 238.53125 105.984375 238.679688 107.046875 C 238.828125 108.109375 238.898438 109.339844 238.898438 110.730469 C 238.898438 112.125 238.828125 113.335938 238.679688 114.363281 C 238.53125 115.390625 238.277344 116.214844 237.910156 116.839844 C 237.542969 117.460938 237.121094 117.917969 236.644531 118.214844 C 236.167969 118.503906 235.671875 118.652344 235.160156 118.652344 L 183.011719 118.652344 L 183.011719 167.046875 L 232.296875 167.046875 C 232.8125 167.046875 233.308594 167.175781 233.785156 167.429688 C 234.261719 167.6875 234.683594 168.109375 235.050781 168.699219 C 235.414062 169.285156 235.671875 170.070312 235.820312 171.058594 C 235.964844 172.050781 236.039062 173.316406 236.039062 174.855469 C 236.039062 176.25 235.964844 177.441406 235.820312 178.429688 C 235.671875 179.417969 235.414062 180.226562 235.050781 180.851562 C 234.683594 181.472656 234.261719 181.949219 233.785156 182.28125 C 233.308594 182.609375 232.8125 182.777344 232.296875 182.777344 L 183.011719 182.777344 L 183.011719 242.058594 C 183.011719 242.570312 182.863281 243.066406 182.570312 243.542969 C 182.277344 244.019531 181.765625 244.386719 181.03125 244.644531 C 180.296875 244.902344 179.34375 245.121094 178.171875 245.304688 C 176.996094 245.488281 175.457031 245.578125 173.550781 245.578125 C 171.789062 245.578125 170.285156 245.488281 169.039062 245.304688 C 167.792969 245.121094 166.800781 244.902344 166.070312 244.644531 C 165.335938 244.386719 164.820312 244.019531 164.527344 243.542969 Z M 187.542969 14.082031 C 274.25 14.082031 344.792969 84.601562 344.792969 171.285156 C 344.792969 257.972656 274.25 328.496094 187.542969 328.496094 C 100.832031 328.496094 30.289062 257.972656 30.289062 171.285156 C 30.289062 84.601562 100.832031 14.082031 187.542969 14.082031 Z M 187.542969 342.578125 C 282.015625 342.578125 358.875 265.734375 358.875 171.285156 C 358.875 76.835938 282.015625 0 187.542969 0 C 93.066406 0 16.207031 76.835938 16.207031 171.285156 C 16.207031 265.734375 93.066406 342.578125 187.542969 342.578125 " fill-opacity="1" fill-rule="nonzero"/></g></svg>