<svg xmlns="http://www.w3.org/2000/svg" xmlns:xlink="http://www.w3.org/1999/xlink" width="500" zoomAndPan="magnify" viewBox="0 0 375 374.999991" height="500" preserveAspectRatio="xMidYMid meet" version="1.0"><defs><clipPath id="44795d372f"><path d="M 0 0 L 374.984375 0 L 374.984375 374.984375 L 0 374.984375 Z M 0 0 " clip-rule="nonzero"/></clipPath></defs><g clip-path="url(#44795d372f)"><path fill="#ffffff" d="M 243.695312 116.078125 C 243.640625 119.492188 243.613281 124.351562 239.601562 124.746094 L 182.535156 124.746094 L 182.535156 177.722656 L 236.472656 177.722656 C 240.582031 178.050781 240.503906 182.710938 240.566406 186.269531 C 240.53125 189.710938 240.398438 194.410156 236.472656 194.9375 L 182.535156 194.9375 L 182.535156 259.828125 C 182.488281 262.546875 179.710938 262.976562 177.238281 263.378906 C 174.824219 263.769531 169.785156 263.789062 167.246094 263.378906 C 164.664062 262.996094 161.917969 262.601562 161.828125 259.828125 L 161.828125 115.597656 C 161.601562 110.167969 165.023438 107.332031 169.535156 107.171875 L 239.601562 107.171875 C 243.660156 107.597656 243.617188 112.640625 243.695312 116.078125 Z M 187.496094 359.574219 C 92.609375 359.574219 15.414062 282.375 15.414062 187.492188 C 15.414062 92.601562 92.609375 15.410156 187.496094 15.410156 C 282.378906 15.410156 359.574219 92.601562 359.574219 187.492188 C 359.574219 282.375 282.378906 359.574219 187.496094 359.574219 Z M 187.496094 0 C 84.109375 0 0 84.105469 0 187.492188 C 0 290.875 84.109375 374.984375 187.496094 374.984375 C 290.878906 374.984375 374.988281 290.875 374.988281 187.492188 C 374.988281 84.105469 290.878906 0 187.496094 0 " fill-opacity="1" fill-rule="nonzero"/></g></svg>