<svg xmlns="http://www.w3.org/2000/svg" xmlns:xlink="http://www.w3.org/1999/xlink" width="500" zoomAndPan="magnify" viewBox="0 0 375 374.999991" height="500" preserveAspectRatio="xMidYMid meet" version="1.0"><defs><clipPath id="c9df186fa9"><path d="M 30.007812 0 L 344.824219 0 L 344.824219 375 L 30.007812 375 Z M 30.007812 0 " clip-rule="nonzero"/></clipPath></defs><g clip-path="url(#c9df186fa9)"><path fill="#ffffff" d="M 331.886719 368.527344 C 331.886719 372.101562 328.988281 375 325.414062 375 L 49.414062 375 C 45.839844 375 42.945312 372.101562 42.945312 368.527344 C 42.945312 364.953125 45.839844 362.054688 49.414062 362.054688 L 325.414062 362.054688 C 328.988281 362.054688 331.886719 364.953125 331.886719 368.527344 Z M 331.886719 338.324219 C 331.886719 341.898438 328.988281 344.796875 325.414062 344.796875 L 49.414062 344.796875 C 45.839844 344.796875 42.945312 341.898438 42.945312 338.324219 C 42.945312 334.75 45.839844 331.851562 49.414062 331.851562 L 325.414062 331.851562 C 328.988281 331.851562 331.886719 334.75 331.886719 338.324219 Z M 177.339844 108.691406 L 193.414062 108.691406 C 196.378906 108.691406 199.425781 108.925781 202.5625 109.398438 C 205.691406 109.871094 208.726562 110.980469 211.65625 112.734375 C 214.589844 114.488281 217.046875 117.152344 219.035156 120.722656 C 221.023438 124.296875 222.015625 128.746094 222.015625 134.074219 C 222.015625 137.984375 221.410156 141.605469 220.195312 144.945312 C 218.984375 148.28125 217.199219 151.144531 214.839844 153.539062 C 212.484375 155.933594 209.566406 157.800781 206.097656 159.152344 C 202.628906 160.5 198.265625 161.171875 193.007812 161.171875 L 177.339844 161.171875 Z M 161.773438 224.933594 C 162.449219 225.167969 163.34375 225.371094 164.453125 225.539062 C 165.566406 225.707031 166.964844 225.792969 168.648438 225.792969 C 170.335938 225.792969 171.730469 225.707031 172.84375 225.539062 C 173.957031 225.371094 174.832031 225.167969 175.472656 224.933594 C 176.113281 224.695312 176.582031 224.375 176.886719 223.972656 C 177.1875 223.566406 177.339844 223.097656 177.339844 222.554688 L 177.339844 175.433594 L 192.199219 175.433594 C 200.285156 175.433594 207.242188 174.421875 213.070312 172.398438 C 218.902344 170.375 223.820312 167.511719 227.828125 163.804688 C 231.839844 160.09375 234.921875 155.613281 237.078125 150.355469 C 239.234375 145.097656 240.308594 139.195312 240.308594 132.65625 C 240.308594 127.734375 239.621094 123.234375 238.242188 119.15625 C 236.859375 115.078125 234.886719 111.488281 232.324219 108.386719 C 229.765625 105.285156 226.648438 102.675781 222.976562 100.550781 C 219.304688 98.425781 215.699219 96.976562 212.160156 96.203125 C 208.625 95.425781 205.558594 94.921875 202.964844 94.683594 C 200.371094 94.449219 197.65625 94.332031 194.828125 94.332031 L 166.832031 94.332031 C 165.078125 94.332031 163.492188 94.90625 162.078125 96.050781 C 160.664062 97.195312 159.957031 99.117188 159.957031 101.8125 L 159.957031 222.554688 C 159.957031 223.097656 160.089844 223.566406 160.363281 223.972656 C 160.632812 224.375 161.101562 224.695312 161.773438 224.933594 Z M 187.414062 12.945312 C 267.078125 12.945312 331.886719 77.785156 331.886719 157.484375 C 331.886719 237.183594 267.078125 302.023438 187.414062 302.023438 C 107.753906 302.023438 42.949219 237.183594 42.949219 157.484375 C 42.949219 77.785156 107.753906 12.945312 187.414062 12.945312 Z M 187.414062 314.96875 C 274.210938 314.96875 344.824219 244.320312 344.824219 157.484375 C 344.824219 70.648438 274.210938 0 187.414062 0 C 100.621094 0 30.007812 70.648438 30.007812 157.484375 C 30.007812 244.320312 100.621094 314.96875 187.414062 314.96875 " fill-opacity="1" fill-rule="nonzero"/></g></svg>