<svg xmlns="http://www.w3.org/2000/svg" xmlns:xlink="http://www.w3.org/1999/xlink" width="500" zoomAndPan="magnify" viewBox="0 0 375 374.999991" height="500" preserveAspectRatio="xMidYMid meet" version="1.0"><defs><clipPath id="d5833c3b95"><path d="M 0 0 L 374.984375 0 L 374.984375 374.984375 L 0 374.984375 Z M 0 0 " clip-rule="nonzero"/></clipPath></defs><g clip-path="url(#d5833c3b95)"><path fill="#ffffff" d="M 159.5 205.535156 L 186.347656 127.878906 L 186.46875 127.878906 L 213.679688 205.535156 Z M 201.277344 110.902344 C 199.027344 105.355469 192.550781 106.816406 187.070312 106.449219 C 181.898438 106.820312 175.777344 105.464844 173.707031 110.785156 L 121.457031 255.496094 C 118.078125 263.675781 123.355469 263.628906 130.125 263.683594 C 134.777344 263.453125 139.945312 264.230469 141.5625 259.46875 L 154.324219 222.027344 L 219.09375 222.027344 L 232.457031 259.949219 C 234.417969 264.769531 239.605469 263.285156 244.5 263.683594 C 251.375 263.640625 256.96875 263.988281 253.53125 255.617188 Z M 187.496094 359.574219 C 92.609375 359.574219 15.414062 282.378906 15.414062 187.496094 C 15.414062 92.609375 92.609375 15.410156 187.496094 15.410156 C 282.378906 15.410156 359.574219 92.609375 359.574219 187.496094 C 359.574219 282.378906 282.378906 359.574219 187.496094 359.574219 Z M 187.496094 0 C 84.109375 0 0 84.109375 0 187.496094 C 0 290.878906 84.109375 374.984375 187.496094 374.984375 C 290.878906 374.984375 374.988281 290.878906 374.988281 187.496094 C 374.988281 84.109375 290.878906 0 187.496094 0 " fill-opacity="1" fill-rule="nonzero"/></g></svg>