<svg xmlns="http://www.w3.org/2000/svg" xmlns:xlink="http://www.w3.org/1999/xlink" width="500" zoomAndPan="magnify" viewBox="0 0 375 374.999991" height="500" preserveAspectRatio="xMidYMid meet" version="1.0"><defs><clipPath id="bc2aec756a"><path d="M 0.125 3.425781 L 375 3.425781 L 375 374.675781 L 0.125 374.675781 Z M 0.125 3.425781 " clip-rule="nonzero"/></clipPath></defs><g clip-path="url(#bc2aec756a)"><path fill="#ffffff" d="M 200.140625 372.628906 L 375.085938 197.914062 C 377.820312 195.1875 377.820312 190.761719 375.085938 188.03125 C 372.351562 185.300781 367.925781 185.300781 365.1875 188.03125 L 190.246094 362.746094 C 187.507812 365.472656 187.507812 369.902344 190.246094 372.628906 C 191.609375 373.996094 193.402344 374.679688 195.191406 374.679688 C 196.984375 374.679688 198.773438 373.996094 200.140625 372.628906 Z M 151.757812 17.394531 C 116.511719 17.394531 81.269531 30.792969 54.4375 57.589844 C 28.441406 83.550781 14.125 118.070312 14.125 154.785156 C 14.125 191.503906 28.441406 226.019531 54.4375 251.980469 C 108.101562 305.570312 195.414062 305.570312 249.082031 251.980469 C 275.078125 226.019531 289.394531 191.503906 289.394531 154.785156 C 289.394531 118.070312 275.078125 83.550781 249.082031 57.589844 C 222.25 30.792969 187.003906 17.394531 151.757812 17.394531 Z M 151.757812 306.148438 C 112.925781 306.152344 74.101562 291.382812 44.539062 261.863281 C 44.535156 261.859375 44.542969 261.867188 44.539062 261.863281 C 15.898438 233.261719 0.125 195.238281 0.125 154.785156 C 0.125 114.335938 15.898438 76.308594 44.539062 47.707031 C 103.664062 -11.335938 199.855469 -11.335938 258.976562 47.707031 C 287.621094 76.308594 303.390625 114.335938 303.390625 154.785156 C 303.390625 195.238281 287.621094 233.261719 258.976562 261.863281 C 229.421875 291.382812 190.582031 306.144531 151.757812 306.148438 " fill-opacity="1" fill-rule="nonzero"/></g></svg>