<svg xmlns="http://www.w3.org/2000/svg" xmlns:xlink="http://www.w3.org/1999/xlink" width="500" zoomAndPan="magnify" viewBox="0 0 375 374.999991" height="500" preserveAspectRatio="xMidYMid meet" version="1.0"><defs><clipPath id="7bf693c401"><path d="M 2.585938 0.105469 L 372.335938 0.105469 L 372.335938 374.875 L 2.585938 374.875 Z M 2.585938 0.105469 " clip-rule="nonzero"/></clipPath></defs><g clip-path="url(#7bf693c401)"><path fill="#ffffff" d="M 370.300781 176.046875 L 196.292969 2.140625 C 193.574219 -0.578125 189.167969 -0.578125 186.449219 2.140625 C 183.726562 4.863281 183.726562 9.261719 186.449219 11.980469 L 360.457031 185.886719 C 363.175781 188.605469 367.585938 188.605469 370.300781 185.886719 C 371.660156 184.527344 372.34375 182.746094 372.34375 180.96875 C 372.34375 179.1875 371.660156 177.410156 370.300781 176.046875 Z M 16.503906 224.144531 C 16.503906 259.179688 29.847656 294.214844 56.535156 320.886719 C 82.390625 346.730469 116.773438 360.960938 153.339844 360.960938 C 189.90625 360.960938 224.285156 346.730469 250.140625 320.886719 C 303.511719 267.539062 303.511719 180.746094 250.140625 127.398438 C 224.285156 101.554688 189.90625 87.324219 153.339844 87.324219 C 116.773438 87.324219 82.390625 101.554688 56.535156 127.398438 C 29.847656 154.074219 16.503906 189.105469 16.503906 224.144531 Z M 304.089844 224.144531 C 304.089844 262.742188 289.382812 301.339844 259.984375 330.726562 C 259.980469 330.730469 259.988281 330.722656 259.984375 330.726562 C 231.496094 359.199219 193.625 374.875 153.339844 374.875 C 113.050781 374.875 75.175781 359.199219 46.691406 330.726562 C -12.113281 271.953125 -12.113281 176.332031 46.691406 117.5625 C 75.175781 89.089844 113.050781 73.410156 153.339844 73.410156 C 193.625 73.410156 231.496094 89.089844 259.984375 117.5625 C 289.382812 146.941406 304.085938 185.550781 304.089844 224.144531 " fill-opacity="1" fill-rule="nonzero"/></g></svg>