<svg xmlns="http://www.w3.org/2000/svg" xmlns:xlink="http://www.w3.org/1999/xlink" width="500" zoomAndPan="magnify" viewBox="0 0 375 374.999991" height="500" preserveAspectRatio="xMidYMid meet" version="1.0"><defs><clipPath id="e8dba664db"><path d="M 0 19.0625 L 361 19.0625 L 361 375 L 0 375 Z M 0 19.0625 " clip-rule="nonzero"/></clipPath></defs><g clip-path="url(#e8dba664db)"><path fill="#ffffff" d="M 12.066406 198.492188 L 179.25 31.15625 C 181.867188 28.542969 181.867188 24.304688 179.25 21.691406 C 176.640625 19.074219 172.410156 19.074219 169.796875 21.691406 L 2.609375 189.023438 C -0.00390625 191.636719 -0.00390625 195.878906 2.609375 198.492188 C 3.917969 199.796875 5.628906 200.453125 7.335938 200.453125 C 9.050781 200.453125 10.761719 199.796875 12.066406 198.492188 Z M 216.03125 98.746094 C 182.347656 98.746094 148.667969 111.578125 123.023438 137.242188 C 71.738281 188.570312 71.738281 272.089844 123.023438 323.421875 C 174.3125 374.746094 257.75 374.746094 309.035156 323.421875 C 360.320312 272.089844 360.320312 188.570312 309.035156 137.242188 C 283.394531 111.578125 249.714844 98.746094 216.03125 98.746094 Z M 216.03125 375.300781 C 178.921875 375.300781 141.816406 361.160156 113.566406 332.886719 C 57.066406 276.339844 57.066406 184.324219 113.566406 127.777344 C 170.066406 71.226562 261.992188 71.226562 318.496094 127.777344 C 374.992188 184.324219 374.992188 276.339844 318.496094 332.886719 C 290.242188 361.160156 253.136719 375.300781 216.03125 375.300781 " fill-opacity="1" fill-rule="nonzero"/></g></svg>