<svg xmlns="http://www.w3.org/2000/svg" xmlns:xlink="http://www.w3.org/1999/xlink" width="500" zoomAndPan="magnify" viewBox="0 0 375 374.999991" height="500" preserveAspectRatio="xMidYMid meet" version="1.0"><defs><clipPath id="6ee4272da7"><path d="M 0 9 L 361 9 L 361 374.996094 L 0 374.996094 Z M 0 9 " clip-rule="nonzero"/></clipPath></defs><g clip-path="url(#6ee4272da7)"><path fill="#ffffff" d="M 2.644531 193.203125 C -0.0078125 195.847656 -0.0078125 200.144531 2.644531 202.792969 L 172.078125 372.332031 C 174.726562 374.980469 179.015625 374.980469 181.664062 372.332031 C 184.308594 369.683594 184.308594 365.390625 181.664062 362.742188 L 12.226562 193.203125 C 10.902344 191.878906 9.167969 191.214844 7.433594 191.214844 C 5.699219 191.214844 3.964844 191.878906 2.644531 193.203125 Z M 114.851562 56.796875 L 114.816406 56.796875 Z M 213.902344 289.226562 C 248.042969 289.226562 282.171875 276.226562 308.164062 250.222656 C 360.132812 198.214844 360.132812 113.597656 308.164062 61.589844 C 256.183594 9.589844 171.613281 9.597656 119.644531 61.589844 C 67.671875 113.597656 67.671875 198.214844 119.644531 250.222656 C 145.628906 276.21875 179.773438 289.226562 213.902344 289.226562 Z M 213.902344 9.027344 C 251.507812 9.027344 289.117188 23.351562 317.746094 52 C 375.003906 109.292969 375.003906 202.519531 317.746094 259.8125 C 260.484375 317.105469 167.320312 317.109375 110.058594 259.8125 C 52.800781 202.519531 52.800781 109.292969 110.058594 52 C 138.691406 23.351562 176.296875 9.027344 213.902344 9.027344 " fill-opacity="1" fill-rule="nonzero"/></g></svg>