<svg xmlns="http://www.w3.org/2000/svg" xmlns:xlink="http://www.w3.org/1999/xlink" width="500" zoomAndPan="magnify" viewBox="0 0 375 374.999991" height="500" preserveAspectRatio="xMidYMid meet" version="1.0"><defs><clipPath id="baa162dd33"><path d="M 0 102.5 L 375 102.5 L 375 374.75 L 0 374.75 Z M 0 102.5 " clip-rule="nonzero"/></clipPath></defs><g clip-path="url(#baa162dd33)"><path fill="#ffffff" d="M 7.515625 307.265625 C 5.308594 307.265625 3.222656 306.253906 1.859375 304.519531 C 0.496094 302.789062 0.0078125 300.523438 0.527344 298.382812 C 0.816406 297.191406 7.882812 268.875 28.21875 240.242188 C 45.105469 216.46875 66.160156 199.632812 90.398438 190.253906 L 104.929688 200.417969 C 79.425781 207.671875 57.746094 223.65625 40.214844 248.1875 C 27.929688 265.367188 20.777344 282.761719 17.257812 292.898438 L 98.476562 292.898438 L 77.9375 307.265625 Z M 121.222656 182.578125 L 130.378906 188.984375 L 140.046875 195.746094 L 140.285156 195.914062 L 237.109375 195.914062 L 257.648438 181.546875 L 138.980469 181.546875 C 138.839844 181.535156 138.703125 181.53125 138.558594 181.53125 C 132.660156 181.53125 126.878906 181.882812 121.222656 182.578125 Z M 112.589844 116.867188 L 322.464844 116.867188 L 325.941406 133.769531 L 338.777344 124.789062 L 335.375 108.238281 C 334.6875 104.898438 331.746094 102.5 328.328125 102.5 L 112.589844 102.5 C 108.621094 102.5 105.398438 105.71875 105.398438 109.683594 C 105.398438 113.652344 108.621094 116.867188 112.589844 116.867188 Z M 140.269531 292.898438 L 119.730469 307.265625 L 257.664062 307.265625 L 237.125 292.898438 Z M 374.527344 298.636719 L 351.664062 187.457031 C 351.664062 187.449219 351.664062 187.441406 351.660156 187.433594 L 351.59375 187.109375 C 351.589844 187.101562 351.589844 187.097656 351.589844 187.089844 L 344.03125 150.347656 L 331.199219 159.328125 L 335.765625 181.542969 L 299.441406 181.542969 L 278.898438 195.914062 L 338.71875 195.914062 L 358.664062 292.898438 L 278.917969 292.898438 L 299.460938 307.265625 L 367.484375 307.265625 C 369.644531 307.265625 371.691406 306.292969 373.058594 304.621094 C 374.421875 302.949219 374.964844 300.75 374.527344 298.636719 Z M 369.925781 363.871094 L 289.011719 307.265625 L 268.46875 292.898438 L 204.371094 248.054688 L 199.144531 244.398438 L 204.371094 240.746094 L 268.453125 195.914062 L 288.992188 181.542969 L 329.882812 152.9375 L 342.71875 143.960938 L 369.925781 124.925781 C 372.636719 123.027344 373.296875 119.296875 371.398438 116.585938 C 369.5 113.878906 365.761719 113.222656 363.050781 115.117188 L 340.089844 131.179688 L 327.257812 140.160156 L 268.097656 181.542969 L 247.558594 195.914062 L 193.921875 233.4375 L 188.699219 237.089844 L 183.476562 233.4375 L 130.191406 196.15625 L 130.1875 196.15625 L 112.679688 183.910156 L 14.34375 115.117188 C 11.636719 113.222656 7.898438 113.882812 6 116.589844 C 4.101562 119.300781 4.761719 123.03125 7.472656 124.929688 L 97.34375 187.800781 L 112.652344 198.511719 L 173.027344 240.746094 L 178.25 244.398438 L 173.027344 248.054688 L 108.925781 292.898438 L 88.386719 307.265625 L 7.472656 363.871094 C 4.761719 365.769531 4.101562 369.503906 6 372.210938 C 7.164062 373.875 9.023438 374.765625 10.914062 374.765625 C 12.101562 374.765625 13.300781 374.414062 14.34375 373.683594 L 109.28125 307.265625 L 129.820312 292.898438 L 183.472656 255.363281 L 188.695312 251.707031 L 193.917969 255.363281 L 247.574219 292.898438 L 268.117188 307.265625 L 363.050781 373.679688 C 364.097656 374.410156 365.296875 374.761719 366.480469 374.761719 C 368.371094 374.761719 370.230469 373.875 371.398438 372.210938 C 373.296875 369.503906 372.636719 365.769531 369.925781 363.871094 Z M 369.925781 363.871094 " fill-opacity="1" fill-rule="nonzero"/></g></svg>