<svg xmlns="http://www.w3.org/2000/svg" xmlns:xlink="http://www.w3.org/1999/xlink" width="500" zoomAndPan="magnify" viewBox="0 0 375 374.999991" height="500" preserveAspectRatio="xMidYMid meet" version="1.0"><defs><clipPath id="ac23e5c8c6"><path d="M 0 170 L 375 170 L 375 374.75 L 0 374.75 Z M 0 170 " clip-rule="nonzero"/></clipPath></defs><g clip-path="url(#ac23e5c8c6)"><path fill="#ffffff" d="M 374.542969 366.109375 L 351.65625 254.851562 C 351.644531 254.804688 351.632812 254.75 351.625 254.703125 L 335.382812 175.753906 C 334.699219 172.414062 331.753906 170.015625 328.339844 170.015625 L 112.585938 170.015625 C 108.613281 170.015625 105.390625 173.230469 105.390625 177.199219 C 105.390625 181.164062 108.613281 184.382812 112.585938 184.382812 L 322.472656 184.382812 L 335.777344 249.042969 L 138.972656 249.042969 C 138.835938 249.035156 138.695312 249.03125 138.554688 249.03125 C 93.648438 249.03125 55.492188 269.328125 28.210938 307.726562 C 7.871094 336.351562 0.804688 364.664062 0.515625 365.855469 C -0.00390625 367.996094 0.484375 370.257812 1.847656 371.992188 C 3.210938 373.726562 5.296875 374.738281 7.503906 374.738281 L 367.496094 374.738281 C 369.65625 374.738281 371.703125 373.765625 373.070312 372.09375 C 374.433594 370.421875 374.972656 368.222656 374.542969 366.109375 Z M 17.25 360.371094 C 20.765625 350.234375 27.925781 332.847656 40.207031 315.671875 C 64.753906 281.324219 97.441406 263.746094 137.371094 263.40625 C 137.433594 263.410156 137.496094 263.414062 137.5625 263.414062 L 338.730469 263.414062 L 358.675781 360.371094 Z M 152.738281 311.734375 C 152.738281 321.652344 144.691406 329.691406 134.757812 329.691406 C 124.828125 329.691406 116.78125 321.652344 116.78125 311.734375 C 116.78125 301.816406 124.828125 293.777344 134.757812 293.777344 C 144.691406 293.777344 152.738281 301.816406 152.738281 311.734375 Z M 218.664062 311.734375 C 218.664062 321.652344 210.613281 329.691406 200.683594 329.691406 C 190.757812 329.691406 182.703125 321.652344 182.703125 311.734375 C 182.703125 301.816406 190.757812 293.777344 200.683594 293.777344 C 210.613281 293.777344 218.664062 301.816406 218.664062 311.734375 Z M 284.589844 311.734375 C 284.589844 321.652344 276.539062 329.691406 266.609375 329.691406 C 256.679688 329.691406 248.628906 321.652344 248.628906 311.734375 C 248.628906 301.816406 256.679688 293.777344 266.609375 293.777344 C 276.539062 293.777344 284.589844 301.816406 284.589844 311.734375 " fill-opacity="1" fill-rule="nonzero"/></g></svg>