<svg xmlns="http://www.w3.org/2000/svg" xmlns:xlink="http://www.w3.org/1999/xlink" width="500" zoomAndPan="magnify" viewBox="0 0 375 374.999991" height="500" preserveAspectRatio="xMidYMid meet" version="1.0"><defs><clipPath id="33ba470263"><path d="M 0 137.1875 L 375 137.1875 L 375 374.9375 L 0 374.9375 Z M 0 137.1875 " clip-rule="nonzero"/></clipPath></defs><g clip-path="url(#33ba470263)"><path fill="#ffffff" d="M 368.179688 374.875 L 6.878906 374.875 C 4.605469 374.875 2.5 373.683594 1.308594 371.75 C 0.113281 369.820312 0 367.433594 1.023438 365.386719 L 46.433594 275.664062 C 59.675781 249.527344 86.105469 233.277344 115.433594 233.277344 L 329.132812 233.277344 L 309.296875 150.316406 L 171.1875 150.316406 C 167.609375 150.316406 164.652344 147.421875 164.652344 143.785156 C 164.652344 140.203125 167.550781 137.25 171.1875 137.25 L 314.414062 137.25 C 317.425781 137.25 320.039062 139.292969 320.777344 142.25 L 374.546875 366.863281 C 375 368.796875 374.546875 370.839844 373.296875 372.433594 C 372.042969 373.96875 370.167969 374.875 368.179688 374.875 Z M 17.449219 361.863281 L 359.9375 361.863281 L 332.316406 246.347656 L 115.488281 246.347656 C 91.105469 246.347656 69.113281 259.871094 58.085938 281.632812 Z M 17.449219 361.863281 " fill-opacity="1" fill-rule="nonzero"/></g></svg>