<svg xmlns="http://www.w3.org/2000/svg" xmlns:xlink="http://www.w3.org/1999/xlink" width="500" zoomAndPan="magnify" viewBox="0 0 375 374.999991" height="500" preserveAspectRatio="xMidYMid meet" version="1.0"><defs><clipPath id="9008fb989d"><path d="M 0.0585938 157.5 L 374.941406 157.5 L 374.941406 374.988281 L 0.0585938 374.988281 Z M 0.0585938 157.5 " clip-rule="nonzero"/></clipPath></defs><g clip-path="url(#9008fb989d)"><path fill="#ffffff" d="M 209.976562 308.535156 C 209.976562 316.8125 203.265625 323.519531 194.992188 323.519531 C 186.714844 323.519531 180.007812 316.8125 180.007812 308.535156 C 180.007812 300.257812 186.714844 293.550781 194.992188 293.550781 C 203.265625 293.550781 209.976562 300.257812 209.976562 308.535156 Z M 13.730469 363.75 C 21.296875 343.804688 30.257812 325.148438 40.421875 308.207031 C 60.722656 274.367188 97.730469 253.339844 137.003906 253.332031 L 336.105469 253.332031 L 362.21875 363.75 Z M 374.789062 368.074219 L 326.007812 161.828125 C 325.410156 159.292969 323.144531 157.5 320.542969 157.5 L 104.714844 157.5 C 101.613281 157.5 99.09375 160.015625 99.09375 163.117188 C 99.09375 166.222656 101.613281 168.738281 104.714844 168.738281 L 316.097656 168.738281 L 333.445312 242.09375 L 137 242.09375 C 93.800781 242.105469 53.101562 265.222656 30.785156 302.425781 C 18.976562 322.113281 8.746094 344 0.382812 367.484375 C -0.230469 369.203125 0.03125 371.113281 1.085938 372.605469 C 2.140625 374.101562 3.851562 374.988281 5.675781 374.988281 L 369.324219 374.988281 C 371.042969 374.988281 372.664062 374.203125 373.730469 372.855469 C 374.792969 371.507812 375.1875 369.746094 374.789062 368.074219 " fill-opacity="1" fill-rule="nonzero"/></g></svg>