<svg xmlns="http://www.w3.org/2000/svg" xmlns:xlink="http://www.w3.org/1999/xlink" width="500" zoomAndPan="magnify" viewBox="0 0 375 374.999991" height="500" preserveAspectRatio="xMidYMid meet" version="1.0"><defs><clipPath id="59451978e0"><path d="M 0 130.9375 L 375 130.9375 L 375 374.6875 L 0 374.6875 Z M 0 130.9375 " clip-rule="nonzero"/></clipPath></defs><g clip-path="url(#59451978e0)"><path fill="#ffffff" d="M 356.835938 374.6875 L 17.9375 374.6875 C 11.964844 374.6875 6.289062 371.703125 3.226562 366.558594 C 0.3125 361.710938 0.015625 355.742188 2.554688 350.671875 L 39.597656 274.515625 C 46.09375 261.242188 56.175781 250.054688 68.722656 242.222656 C 81.265625 234.390625 95.753906 230.210938 110.542969 230.210938 L 316.136719 230.210938 C 322.1875 230.210938 326.667969 224.542969 325.246094 218.578125 L 308.144531 148.914062 C 307.699219 146.972656 305.980469 145.632812 303.964844 145.632812 L 168.195312 145.632812 C 164.238281 145.632812 160.800781 142.574219 160.652344 138.621094 C 160.355469 134.441406 163.714844 130.9375 167.972656 130.9375 L 303.964844 130.9375 C 312.777344 130.9375 320.394531 136.90625 322.484375 145.40625 L 373.714844 353.730469 C 374.984375 358.800781 373.863281 364.023438 370.652344 368.125 C 367.367188 372.375 362.214844 374.6875 356.835938 374.6875 Z M 110.542969 244.90625 C 86.195312 244.90625 63.492188 259.078125 52.890625 280.933594 L 15.699219 357.085938 C 15.324219 357.90625 15.550781 358.578125 15.773438 359.023438 C 16.070312 359.472656 16.519531 359.992188 17.492188 359.992188 L 357.210938 359.992188 C 358.105469 359.992188 358.703125 359.472656 358.929688 359.171875 C 359.152344 358.875 359.527344 358.203125 359.300781 357.308594 L 334.285156 255.496094 C 332.789062 249.308594 327.1875 244.980469 320.839844 244.980469 L 110.542969 244.980469 Z M 110.542969 244.90625 " fill-opacity="1" fill-rule="nonzero"/></g><path fill="#ffffff" d="M 164.835938 302.710938 C 164.835938 303.519531 164.753906 304.320312 164.597656 305.113281 C 164.441406 305.90625 164.207031 306.675781 163.898438 307.421875 C 163.585938 308.167969 163.207031 308.875 162.757812 309.546875 C 162.308594 310.21875 161.796875 310.84375 161.226562 311.414062 C 160.652344 311.984375 160.03125 312.496094 159.359375 312.945312 C 158.683594 313.394531 157.976562 313.773438 157.226562 314.082031 C 156.480469 314.390625 155.710938 314.625 154.917969 314.78125 C 154.121094 314.9375 153.320312 315.019531 152.511719 315.019531 C 151.703125 315.019531 150.902344 314.9375 150.109375 314.78125 C 149.316406 314.625 148.542969 314.390625 147.796875 314.082031 C 147.050781 313.773438 146.339844 313.394531 145.667969 312.945312 C 144.992188 312.496094 144.371094 311.984375 143.800781 311.414062 C 143.226562 310.84375 142.714844 310.21875 142.265625 309.546875 C 141.816406 308.875 141.4375 308.167969 141.128906 307.421875 C 140.820312 306.675781 140.585938 305.90625 140.425781 305.113281 C 140.269531 304.320312 140.191406 303.519531 140.191406 302.710938 C 140.191406 301.902344 140.269531 301.101562 140.425781 300.308594 C 140.585938 299.519531 140.820312 298.75 141.128906 298 C 141.4375 297.253906 141.816406 296.546875 142.265625 295.875 C 142.714844 295.203125 143.226562 294.582031 143.800781 294.007812 C 144.371094 293.4375 144.992188 292.925781 145.667969 292.476562 C 146.339844 292.03125 147.050781 291.648438 147.796875 291.339844 C 148.542969 291.03125 149.316406 290.796875 150.109375 290.640625 C 150.902344 290.484375 151.703125 290.402344 152.511719 290.402344 C 153.320312 290.402344 154.121094 290.484375 154.917969 290.640625 C 155.710938 290.796875 156.480469 291.03125 157.226562 291.339844 C 157.976562 291.648438 158.683594 292.03125 159.359375 292.476562 C 160.03125 292.925781 160.652344 293.4375 161.226562 294.007812 C 161.796875 294.582031 162.308594 295.203125 162.757812 295.875 C 163.207031 296.546875 163.585938 297.253906 163.898438 298 C 164.207031 298.746094 164.441406 299.519531 164.597656 300.308594 C 164.753906 301.101562 164.835938 301.902344 164.835938 302.710938 Z M 164.835938 302.710938 " fill-opacity="1" fill-rule="nonzero"/><path fill="#ffffff" d="M 234.734375 302.710938 C 234.734375 303.519531 234.65625 304.320312 234.5 305.113281 C 234.339844 305.90625 234.105469 306.675781 233.796875 307.421875 C 233.488281 308.167969 233.109375 308.875 232.660156 309.546875 C 232.210938 310.21875 231.699219 310.84375 231.125 311.414062 C 230.554688 311.984375 229.929688 312.496094 229.257812 312.945312 C 228.585938 313.394531 227.875 313.773438 227.128906 314.082031 C 226.382812 314.390625 225.609375 314.625 224.816406 314.78125 C 224.023438 314.9375 223.222656 315.019531 222.414062 315.019531 C 221.605469 315.019531 220.800781 314.9375 220.007812 314.78125 C 219.214844 314.625 218.445312 314.390625 217.699219 314.082031 C 216.949219 313.773438 216.238281 313.394531 215.566406 312.945312 C 214.894531 312.496094 214.273438 311.984375 213.699219 311.414062 C 213.128906 310.84375 212.617188 310.21875 212.167969 309.546875 C 211.71875 308.875 211.339844 308.167969 211.027344 307.421875 C 210.71875 306.675781 210.484375 305.90625 210.328125 305.113281 C 210.167969 304.320312 210.089844 303.519531 210.089844 302.710938 C 210.089844 301.902344 210.167969 301.101562 210.328125 300.308594 C 210.484375 299.519531 210.71875 298.75 211.027344 298 C 211.339844 297.253906 211.71875 296.546875 212.167969 295.875 C 212.617188 295.203125 213.128906 294.582031 213.699219 294.007812 C 214.273438 293.4375 214.894531 292.925781 215.566406 292.476562 C 216.238281 292.03125 216.949219 291.648438 217.699219 291.339844 C 218.445312 291.03125 219.214844 290.796875 220.007812 290.640625 C 220.800781 290.484375 221.605469 290.402344 222.414062 290.402344 C 223.222656 290.402344 224.023438 290.484375 224.816406 290.640625 C 225.609375 290.796875 226.382812 291.03125 227.128906 291.339844 C 227.875 291.648438 228.585938 292.03125 229.257812 292.476562 C 229.929688 292.925781 230.554688 293.4375 231.125 294.007812 C 231.699219 294.582031 232.210938 295.203125 232.660156 295.875 C 233.109375 296.546875 233.488281 297.253906 233.796875 298 C 234.105469 298.746094 234.339844 299.519531 234.5 300.308594 C 234.65625 301.101562 234.734375 301.902344 234.734375 302.710938 Z M 234.734375 302.710938 " fill-opacity="1" fill-rule="nonzero"/></svg>