<svg xmlns="http://www.w3.org/2000/svg" xmlns:xlink="http://www.w3.org/1999/xlink" width="500" zoomAndPan="magnify" viewBox="0 0 375 374.999991" height="500" preserveAspectRatio="xMidYMid meet" version="1.0"><defs><clipPath id="7dbf08e0eb"><path d="M 0 70.28125 L 375 70.28125 L 375 308 L 0 308 Z M 0 70.28125 " clip-rule="nonzero"/></clipPath></defs><g clip-path="url(#7dbf08e0eb)"><path fill="#ffffff" d="M 368.179688 307.96875 L 6.878906 307.96875 C 4.605469 307.96875 2.5 306.777344 1.308594 304.84375 C 0.113281 302.914062 0 300.527344 1.023438 298.480469 L 46.433594 208.757812 C 59.675781 182.621094 86.105469 166.371094 115.433594 166.371094 L 329.132812 166.371094 L 309.296875 83.410156 L 171.1875 83.410156 C 167.609375 83.410156 164.652344 80.511719 164.652344 76.875 C 164.652344 73.296875 167.550781 70.34375 171.1875 70.34375 L 314.414062 70.34375 C 317.425781 70.34375 320.039062 72.386719 320.777344 75.34375 L 374.546875 299.957031 C 375 301.890625 374.546875 303.933594 373.296875 305.527344 C 372.042969 307.058594 370.167969 307.96875 368.179688 307.96875 Z M 17.449219 294.957031 L 359.9375 294.957031 L 332.316406 179.4375 L 115.488281 179.4375 C 91.105469 179.4375 69.113281 192.960938 58.085938 214.726562 Z M 17.449219 294.957031 " fill-opacity="1" fill-rule="nonzero"/></g><path stroke-linecap="round" transform="matrix(0.53033, -0.53033, 0.53033, 0.53033, 95.628661, 369.694898)" fill="none" stroke-linejoin="miter" d="M 5.001149 5.00193 L 95.179366 5.00193 " stroke="#000000" stroke-width="10" stroke-opacity="1" stroke-miterlimit="4"/><path stroke-linecap="round" transform="matrix(-0.0183734, -0.749775, 0.749775, -0.0183734, 186.771803, 374.595679)" fill="none" stroke-linejoin="miter" d="M 5.001345 5.001203 L 72.151731 5.000414 " stroke="#000000" stroke-width="10" stroke-opacity="1" stroke-miterlimit="4"/><path stroke-linecap="round" transform="matrix(0.579325, 0.476322, -0.476322, 0.579325, 221.333822, 316.662284)" fill="none" stroke-linejoin="miter" d="M 4.999534 5.001917 L 95.17682 5.001452 " stroke="#000000" stroke-width="10" stroke-opacity="1" stroke-miterlimit="4"/></svg>